<?xml version="1.0" encoding="utf-8"?>
<!-- Generator: Adobe Illustrator 21.0.0, SVG Export Plug-In . SVG Version: 6.00 Build 0)  -->
<svg version="1.1"
	 id="svg2" inkscape:version="0.91 r13725" sodipodi:docname="World_map_-_low_resolution.svg" xmlns:cc="http://creativecommons.org/ns#" xmlns:dc="http://purl.org/dc/elements/1.1/" xmlns:inkscape="http://www.inkscape.org/namespaces/inkscape" xmlns:rdf="http://www.w3.org/1999/02/22-rdf-syntax-ns#" xmlns:sodipodi="http://sodipodi.sourceforge.net/DTD/sodipodi-0.dtd" xmlns:svg="http://www.w3.org/2000/svg"
	 xmlns="http://www.w3.org/2000/svg" xmlns:xlink="http://www.w3.org/1999/xlink" x="0px" y="0px" viewBox="0 0 1920 1080"
	 enable-background="new 0 0 1920 1080" xml:space="preserve">
<sodipodi:namedview  bordercolor="#666666" borderopacity="1" gridtolerance="10" guidetolerance="10" id="namedview342" inkscape:current-layer="svg2" inkscape:cx="248.04005" inkscape:cy="326.05286" inkscape:object-nodes="true" inkscape:object-paths="true" inkscape:pageopacity="0" inkscape:pageshadow="2" inkscape:snap-nodes="true" inkscape:snap-smooth-nodes="true" inkscape:window-height="980" inkscape:window-maximized="1" inkscape:window-width="1920" inkscape:window-x="0" inkscape:window-y="34" inkscape:zoom="1" objecttolerance="10" pagecolor="#ffffff" showgrid="false">
	</sodipodi:namedview>
<path id="kalimantan" fill="#3D3F51" d="M1494.738,677.245l-4.278,16.073l-23.203,7.833l-6.944-8.148l-3.37,0.926l6.296,24.295
	l9.426,1.056l12.574,4.759v4.759l5.759-1.056l8.389-11.611v-9.5l4.722-9.5l5.241,1.056l-6.296-13.203l-0.963-8.5L1494.738,677.245
	L1494.738,677.245z"/>
<path id="papua_new_guinea" fill="#3D3F51" d="M1626.362,721.484l-0.685,45.258l6.518-0.352l8.574-10.018l7.203,0.352l4.629,4.148
	l1.537,12.777l14.74,7.777l3.778-1.389v-4.667l-11.833-9.852l-5.833-13.481l4.629-2.241l-3.426-7.426l-6.852-0.167l-1.722-7.944
	l-18.166-12.259L1626.362,721.484L1626.362,721.484z"/>
<path id="mexico" fill="#3D3F51" d="M301.839,493.974l8.944,28.166l-4.167,2.333l0.463,5.592l7.87,6.055v11.203l9.722,9.333
	l-4.167-27.517l-5.555-18.203l1.389-12.592l4.629,0.463l1.852,4.204l-1.852,10.722l24.073,47.109v16.796l19.444,22.851l21.295,9.796
	l8.796-5.129l12.5,10.259l7.407-7.463l-3.241-8.407l10.648-3.259l3.241,1.87l3.241-3.259h5.092l9.259-16.333l-4.629-4.204
	l-18.055,4.204l-4.167,12.129l-10.648,1.87l-12.5-5.129l-5.555-17.722l4.204-22.351l-8.592-5.352l-4.092-21.462l-3.426-1.463
	l-6.259,6.352l-7.185-3.833l-2.815-14.314l-28.462-2.981l-14.703-11.055L301.839,493.974L301.839,493.974z"/>
<path id="estonia" fill="#3D3F51" d="M1006.034,342.554l-10.37-0.37l-6.574,4.018l-0.093,2.981l4.259,4.018l13.24,2.241
	L1006.034,342.554L1006.034,342.554z"/>
<path id="algeria" fill="#3D3F51" d="M924.759,497.789l-7.555-2.537l-31.443,5.907l-6.852,5.204l4.185,21.61l-12.5,0.5
	l-7.518,12.092l-17.907,4.296l0.056,8.796l58.979,45.091l10.055,0.852l33.536-26.203l-3.352-4.222l-6.296-0.852l-3.778-6.333
	v-26.203l-2.518-2.537l0.426-6.759l-6.703-6.759l-0.833-7.185l2.926-2.111l-1.259-7.611L924.759,497.789L924.759,497.789z"/>
<path id="morocco" fill="#3D3F51" d="M877.372,506.659h-21.388l-4.185,9.296l-9.648,4.648l-7.963,21.555l-15.518,9.296
	l-21.795,35.906l21.388-0.426l0.833-10.555h5.444v-14.37h18.87l0.426-18.592l18.036-4.222l7.555-12.259l11.74-0.426L877.372,506.659
	L877.372,506.659z"/>
<path id="mauretania" fill="#3D3F51" d="M797.023,588.841l4.037,5.278l-0.833,22.814l5.87-4.222l4.185-0.852l5.87,2.111l6.703,9.296
	l6.296-4.222l30.61-0.426l-7.555-51.128l8.111-0.037l-15.111-11.574l0.019,7.518l-19.129,0.019l-0.093,14.351l-5.5-0.019
	l-0.704,10.592L797.023,588.841L797.023,588.841z"/>
<path id="senegal" fill="#3D3F51" d="M806.69,614.136l-7.296,5.296l-1.667,2.963l-0.518,2.963l2.685,1.926l8.963-0.13l5.759-1.555
	l0.648,2.833l-0.518,3.741l5.5,2.704l1.148,1.296l7.296,0.259l0.259-3.222l-6.666-8l-7.426-10.055l-4.611-1.926L806.69,614.136
	L806.69,614.136z"/>
<path id="gambia" fill="#3D3F51" d="M800.709,628.987l-0.241,2.055l12.814-0.185l0.648-1.907l-0.278-1.926l-3.685,1.5
	L800.709,628.987L800.709,628.987z"/>
<path id="casamance" fill="#3D3F51" d="M800.523,632.469l2.296,5.574l1.278-3.444l15.573,1.63l-6.741-3.463L800.523,632.469
	L800.523,632.469z"/>
<path id="bissau" fill="#3D3F51" d="M803.875,640.45l2.593,5.129l7.277-6.259l0.074-1.926l-8.574-1.241L803.875,640.45
	L803.875,640.45z"/>
<path id="guinee" fill="#3D3F51" d="M807.245,646.764l5.629,8.666l7.333-6.37l7.518-0.333l6.259,8.314l5.315,3.5l2-3.889l1.778-1
	l-0.13-8.555l-3.537-10.148l-10.851,1.204l-13.425-1.074l-0.074,3.444L807.245,646.764L807.245,646.764z"/>
<path id="sierra_leone" fill="#3D3F51" d="M813.745,656.375l10.463,10.111l7.463-9.055l-4.667-7.315l-6.426,0.648L813.745,656.375
	L813.745,656.375z"/>
<path id="liberia" fill="#3D3F51" d="M825.3,667.597l20.333,13.592l-0.482-10.296l-6.148-7.24l-6-5.315L825.3,667.597L825.3,667.597
	z"/>
<path id="ivoire" fill="#3D3F51" d="M847.336,681.596l7.926-5.611l9.852-1.722l10.055,2.167l-5.129-7.759l-1.5-4.741l1.5-14.018
	l-8.981,0.426l-4.074-3.889l-8.555,0.222l-4.074,0.648l0.426,9.481l-2.148,0.87l-2.574,4.741l6.629,7.759L847.336,681.596
	L847.336,681.596z"/>
<path id="mali" fill="#3D3F51" d="M823.985,624.358l5.703-3.907l31.703-0.185l-7.333-50.998l8.37-0.241l40.498,30.906l5.444,0.778
	l-2.055,17.185l-25.462,2.315l-19.647,14.666l-3.574,10.037l-13.648,0.574l-3.481-10.018l-10.463,0.741l0.407-3.278L823.985,624.358
	L823.985,624.358z"/>
<path id="burkina" fill="#3D3F51" d="M881.631,621.469l6.741-0.537l11.055,15.629l-10.259,7.74l-7.426-1.907l-9.981,0.13
	l-1.611,5.852l-8.37,0.407l-2.296-3.13l2.963-9.518L881.631,621.469L881.631,621.469z"/>
<path id="niger" fill="#3D3F51" d="M900.705,635.765l4.722-0.111l4.259-6.389l7.148-1.278l7.611,4.648l16.24,0.463l12.555-5.111
	l4.722-4.055l0.352-5.333l8.759-8.833l2.315-19.499l-5.759-12.074l-14.74-3.592l-34.11,26.592l-4.833-0.463l-2.074,18.462
	l-17.407,1.741L900.705,635.765L900.705,635.765z"/>
<path id="ghana" fill="#3D3F51" d="M870.058,663.634l2.074,4.87l5.407,8.481l3-0.111l8.185-4.648l-0.574-26.462l-6.333-1.852
	l-8.87,0.241L870.058,663.634L870.058,663.634z"/>
<path id="togo" fill="#3D3F51" d="M890.205,671.412l4.963-2.907l-0.111-19.166l-3.222-5.222l-2.074,1.741L890.205,671.412
	L890.205,671.412z"/>
<path id="benin" fill="#3D3F51" d="M896.668,668.152h3.926l0.222-11.148l4.963-7.203l-0.222-12.536l-4.5-0.111l-7.722,6.037
	l3.222,6.148L896.668,668.152L896.668,668.152z"/>
<path id="nigeria" fill="#3D3F51" d="M901.964,667.93l7.259,0.352l8.759,9.759l4.259,1.167l3.333-1.63l5.074-0.704l1.722-7.074
	l6.907-4.537l7.481-0.352l13.703-25.203l-0.222-5.685l-6.333-4.87l-12.666,5.574l-16.944-0.241l-8.074-5.111l-5.759,1.278l-3,5.222
	l-0.222,14.74l-4.833,6.852L901.964,667.93L901.964,667.93z"/>
<path id="tunisia" fill="#3D3F51" d="M926.667,497.492l10.24-4.129l3.37,2.185l0.13,2.667l-1.574,2.055l0.241,3.648l1.574,0.852
	v6.555l-1.815,3.037l0.241,1.944l6.87,2.426l-5.537,8.611l-2.167-0.13l-0.37,6.926l-2.407,0.37l-2.055-1.815l0.482-7.037
	l-6.741-6.555l-0.852-5.703l3.259-2.555L926.667,497.492L926.667,497.492z"/>
<path id="libya" fill="#3D3F51" d="M936.185,535.824l2.889-0.481l0.852-6.666h1.444l5.907-9.703l14.573,4.241l3.981,6.185
	l14.333,6.555l7.463-3.148l-0.722-3.148l-3.259-3.148l0.37-2.185l5.296-4.481h10.481l3.981,5.333l8.426,1.222l1.093,68.312
	l-6.259-0.241l-37.813-19.666l-4.092,2.315l-15.536-3.889l-4.222-5.574l-6.148-0.852l-3.13-5.574L936.185,535.824L936.185,535.824z"
	/>
<path id="egypt" fill="#3D3F51" d="M1013.737,526.621l4.944,0.13l9.629,2.667l4.574,0.13l5.666-4.741h2.648l4.815,2.667h6.092
	l1.093-0.074l3.852,11.074l1.093,3.574l1.018,5.352l-1.815,1.333l-3.13-1.574l-3.611-11.777l-3.259-0.241l-0.241,4l2.167,6.926
	l17.351,21.481l0.37,9.222l-5.055,5.833l-47.48-0.537L1013.737,526.621L1013.737,526.621z"/>
<path id="chad" fill="#3D3F51" d="M959.777,624.654l0.241-5.463l8.777-8.537l2.352-20.962l-5.852-11.185l4.092-2.093l39.628,20.647
	l-0.241,20.258l-6.981,5.944v10.444l4.574,8.852h-8.074l-13.37,13.222l-0.352,4l-9.87-0.13l-0.13,1.815l-5.629-0.741l-3.852-7.278
	l-2.889-1.426l0.37-2.222l3.629-2.778v-12.999l-5.018-0.778l-6.055-4.5L959.777,624.654L959.777,624.654L959.777,624.654z"/>
<path id="south_sudan" inkscape:label="#south sudan" fill="#3D3F51" d="M1064.021,651.208l-5.45-9.154l-0.571-6.658l-1.309,0.25
	l-0.354,2.051l-7.143,10.434l-5.7-2.72l-5.686,4.763l-11.762-0.676l-5.205-4.159l-7.469,3.823l-0.282,2.546l-2.279,1.371
	l22.815,23.48l12.427,0.705l1.812,2.76l17.78,0.315l0.145-3.982l1.519-2.76l5.928-0.76l-7.389-10.72h-5.443l-1.389-7.613
	l4.369-1.924L1064.021,651.208z"/>
<path id="sudan" fill="#3D3F51" d="M1069.42,577.636l-6.832,6.89l-47.777-0.427l0.517,12.167l-4.553-0.13l-0.333,21.907
	l-6.908,5.946l-0.278,9.147l4.984,9.834l5.461,3.223l-0.083,0.767l7.443-3.812l5.678,4.535l10.442,0.6l6.033-5.053l5.346,2.546
	l6.018-8.792l0.506-2.919l4.586-0.872l0.713,8.279l4.586,7.704l11.118-23.91V610.73l8.076-9.519L1069.42,577.636z"/>
<path id="cameroon" fill="#3D3F51" d="M932.055,677.022l5.963,5.481l-0.426,8.481l32.702-0.759l2.667-3l-9.37-10.092l-1.389-3.648
	l5.963-11.166l-4.055-7.407l-3.407-1.833v-3.759l3.944-2.574l0.222-11.703l-3.13-0.352l-0.056,6.148l-13.74,25.647l-8.407,0.426
	l-5.759,3.963L932.055,677.022L932.055,677.022z"/>
<path id="eritrea" fill="#3D3F51" d="M1078.142,622.247l-0.463-10.907l7.333-8.555l1.981,1.518l3.611,12.074l17.333,12.907
	l-3.148,3.87l-12.685-10.907L1078.142,622.247L1078.142,622.247z"/>
<path id="djibouti" fill="#3D3F51" d="M1105.493,634.913l-1.056,6.222l7.333-0.111l0.111-9.148l-2.685-1.648L1105.493,634.913
	L1105.493,634.913z"/>
<path id="ethiopia" fill="#3D3F51" d="M1064.772,653.838l13.481-29.999l13.388,0.074l11.87,10.314l-0.833,8.5h9.203l0.944,5.111
	l14.888,8.907l9.185,0.463l-17.462,18.759l-23.981,7.389h-5.944l-10.592-9.037l-4.185-1.759l-8.111-11.944l-5.352,0.074l-0.63-5.481
	L1064.772,653.838L1064.772,653.838z"/>
<path id="somaliland" fill="#3D3F51" d="M1113.382,641.394l7.555,5.148l2.241-0.111l18.759-6.444l2.13,6.87l-1.5,5.796l-4.055,3.222
	l-10.129-0.648l-14.5-8.907L1113.382,641.394L1113.382,641.394z"/>
<path id="soqotra" fill="#3D3F51" d="M1157.602,631.413l3.944,4.407l5.333-3.222l1.926-0.648l-2.444-2.37l-4.685,1.389
	L1157.602,631.413L1157.602,631.413z"/>
<path id="somalia" fill="#3D3F51" d="M1143.436,639.561l8.092-3.111l2.87,1.722l-0.315,7.185l-7.463,21.258l-40.387,43.258
	l-4.685-3.222l-0.315-18.259l6.074-6.981l12.888-3.981l18.907-19.962l4.944-4.407l1.389-6.444L1143.436,639.561L1143.436,639.561z"
	/>
<path id="centrafrique" fill="#3D3F51" d="M965.091,676.596l8.629,9.333l3.407-4.407l5.426,0.222l1.167-4.296l5.333-3.333
	l11.074,7.629l6.389-6.333l24.795,1.093l-22.999-23.74l3.092-1.926l0.426-4.185l-5.222-2.463h-7.666l-12.351,12.24l-0.426,5.037
	l-9.796-0.315l-0.315,2.148l-6.389-0.648l-5.759,10.944L965.091,676.596L965.091,676.596z"/>
<path id="sao_tome" fill="#3D3F51" d="M918.945,700.855l2.13-1.074l1.592,1.296l-1.592,2.463l-1.926-0.759L918.945,700.855
	L918.945,700.855z"/>
<path id="principe" fill="#3D3F51" d="M923.222,694.096l3.204-0.537l1.074,2.037l-1.592,1.722l-1.593-0.222L923.222,694.096
	L923.222,694.096z"/>
<path id="bioko" fill="#3D3F51" d="M930.241,682.819l-0.852,3.648l2.555,1.389l2.444-1.833l-0.852-3.759L930.241,682.819
	L930.241,682.819z"/>
<path id="gabon" fill="#3D3F51" d="M947.925,692.485l-0.222,4.611l-10.444-0.222l-6.389,12.351l15.018,16.425l3.722-3.111
	l-0.111-3.222l-2.555-1.185v-2.259l5.759-3.648l5.111,3.87l5.648,0.111l-0.111-19.425l-8.944-0.426l-0.111-4.074L947.925,692.485
	L947.925,692.485z"/>
<path id="equatorial_guinea" fill="#3D3F51" d="M937.925,692.596l-0.111,2.574l8.407,0.426l-0.111-2.907L937.925,692.596
	L937.925,692.596z"/>
<path id="congo" fill="#3D3F51" d="M956.462,692.281l-0.111,2.685l8.852,0.222l0.315,22.981l-8.092-0.222l-4.685-3.648l-3.63,2.037
	l-0.167,1.018l1.87,0.907l0.537,4.722l-5,4.296l1.074,2.259l5.537-4.296h2.667l0.852,2.574l3.518,1.5l11.296-9.555l-0.222-6.981
	l2.352-5.685l7.24-5.37l1.944-18.166l-5.148,0.019l-5.963,8.166L956.462,692.281L956.462,692.281z"/>
<path id="cabinda" fill="#3D3F51" d="M948.221,730.632l3.222,4.185l4.167-3.944l-1.222-4.092l-1.037-0.074L948.221,730.632
	L948.221,730.632z"/>
<path id="drc" fill="#3D3F51" d="M953.462,735.224l19.092-0.333l3.87,5.5l-0.148,4.055l1.426,1.296h9.481l2.722-5.352h3.87
	l1.574,1.593l5.315-0.148l1.574,18.666l9.185,0.296v1.444l24.684,11.129l1.148,2.167h5.167l-0.574-7.815l-9.333-4.481l0.574-5.926
	l4.018-9.407l9.185-0.296l-7.889-26.184l0.148-11.129l12.481-19.518l0.148-2.741l-1.87-1.018l0.074-5.296l-2.278-0.204l-2.296-2.926
	l-37.684-1.704l-6.907,6.722l-11.314-7.444l-3.981,2.444l-2.889,24.314l-7.148,5.518l-2.148,4.889l0.389,7.24l-12.888,10.537
	l-3.426-1.555l0.463,2.018L953.462,735.224L953.462,735.224z"/>
<path id="rwanda" fill="#3D3F51" d="M1043.162,705.947l5.203,4.796l-0.222,5.129l-8.074,0.167v-5.666L1043.162,705.947
	L1043.162,705.947z"/>
<path id="burundi" fill="#3D3F51" d="M1040.181,717.632l7.907-0.167l-2.055,6.926l-2,1.741h-2.444l-1.741-4.685L1040.181,717.632
	L1040.181,717.632z"/>
<path id="uganda" fill="#3D3F51" d="M1044.051,704.447l5.611,5.259l3.518-2.241l9.518-1.555l1.63,0.167l0.611-3.611l5.37-11.296
	l-4.518-9.407l-14.647,0.093l-0.093,3.87l1.963,1.889l-0.296,3.87L1044.051,704.447L1044.051,704.447z"/>
<path id="kenya" fill="#3D3F51" d="M1067.254,681.17l4.926,9.611l-5.907,12.388l-0.778,3.759l29.499,18.24l9.148-14.37l-4.629-3.759
	l-0.093-18.925l5.796-6.333l-9.24,3.074l-6.981,0.093l-10.926-9.222l-3.444-1.481l-6.389,0.593l-1.13,1.889L1067.254,681.17
	L1067.254,681.17z"/>
<path id="tanzania" fill="#3D3F51" d="M1066.772,764.315l32.351-3.963l-7.278-14.074l-0.389-13.481l2.352-6.444l-30.776-19.333
	l-9.648,1.593l-3.352,2.481l-0.296,5.648l-2.167,7.833l-2.259,2.685l-3.241,0.296l6.203,21.499l10.129,4.759l6.981,0.204
	L1066.772,764.315L1066.772,764.315z"/>
<path id="zambia" fill="#3D3F51" d="M1000.071,788.907l5.87,8.148l9.092,0.556l3.222,1.778l9.518,0.111l8.203-11.5l22.925-10.259
	l2-9.037l-2.667-12.944l-11.963-6.815l-7.981,0.555l-3.981,8.815l0.111,4.018l9.407,4.574l0.556,9.944l-8.092,0.444l-2-3.352
	l-22.481-9.592l-0.667,7.37l-10.629,0.333L1000.071,788.907L1000.071,788.907z"/>
<path id="angola" fill="#3D3F51" d="M952.055,737.076l6.315,23.573l-0.148,7.444l-9.24,9.926l-1.389,16.129l35.554,0.315
	l11.555,4.185l9.537-1.241l-5.555-6.963l0.018-19.888l10.926-0.463v-7.759l-8.87-0.37l-1.778-18.37l-3.741,0.056l-2.018-1.815
	l-2.204,0.111l-2.926,5.666h-11.259l-2.611-2.63l0.778-3.722l-3.074-4.5L952.055,737.076L952.055,737.076z"/>
<path id="malawi" fill="#3D3F51" d="M1060.458,779.093l5.759,6.018l-0.111,7.703l1.111,3.241l7.648-8.259l-0.889-10.5l-4.093-3.13
	l-3.648-18.425l-6.315-0.222l2.87,13.277L1060.458,779.093L1060.458,779.093z"/>
<path id="mozambique" fill="#3D3F51" d="M1049.366,841.831l4.981,4.13l11.74-7.148l1.889-10.611v-17.518l18.833-15.407l3.222,0.111
	l11.407-10.944l-1.778-22.555l-30.24,3.815l0.889,6.815l5.203,4.018l1.222,12.277l-10.185,9.944l-2.444-5.574l0.444-7.37l-5.87-6.37
	l-14.407,6.703l13.407,6.815l0.444,19.87l-8.87,13.166L1049.366,841.831L1049.366,841.831z"/>
<path id="zimbabwe" fill="#3D3F51" d="M1018.793,802.981l16.61,18.759l12.74,3.241l8.537-13.388l-0.667-17.74l-13.851-7.148
	l-5.203,2.352l-7.759,11.833l-10.74-0.111L1018.793,802.981L1018.793,802.981z"/>
<path id="namibia" fill="#3D3F51" d="M966.739,857.904l6.203,0.444l3.648,3.685l8.648,0.111l2.111-24.555v-16.073l5.537-1.111
	l2.111-16.851l14.074-0.444l4.981-4.13l-8.426-0.333l-11.407,1.555l-12.296-4.463H947.37l0.889,9.814l11.518,16.962l-2,8.703
	l0.111,4.574L966.739,857.904L966.739,857.904z"/>
<path id="botswana" fill="#3D3F51" d="M988.887,838.035l3.981,1.222l-0.556,11.388l4.092,0.555l9.407-8.481l11.296,1.222l3-7.592
	l14.296-13.055l-17.166-19.759l-0.222-3.241l-1.889-0.556l-5.203,4.796l-13.518,0.333l-1.889,16.851l-5.315,1.222L988.887,838.035
	L988.887,838.035z"/>
<path id="swaziland" fill="#3D3F51" d="M1048.81,843.164l-4.648,0.778l-2,5.463l3.555,3.241h4.315l3.648-5.24L1048.81,843.164
	L1048.81,843.164z"/>
<path id="lesotho" fill="#3D3F51" d="M1023.885,864.256l5.648-4.352l2.667,0.111l3.222,4.018l-0.333,4.018l-5.426,2v1.555
	l-5.981-0.333l-1.444-4.352L1023.885,864.256L1023.885,864.256z"/>
<path id="south_africa" fill="#3D3F51" d="M1036.385,823.961l-14.629,13.518l-3.481,8.352l-11.592-1.444l-9.648,8.574l-6.407-0.63
	l0.519-11.851l-2.278-0.796l-1.592,24.24l-11.37-0.111l-3.426-4.037l-5.018-0.056l4.574,13.129l8.166,7.722l-5.833,6.796
	l3.778,8.518l8.74,3.333l6.963-5.926l19.944,0.111l1.426-1.778l8.852-1.555l29.943-29.814l-0.111-9.388l-3.204,4.148h-4.796
	l-5.833-4.889l2.963-7.37l5.092-1.037l-0.463-15.148L1036.385,823.961L1036.385,823.961z M1029.366,858.219l2.796-0.111l4.537,4.926
	l-0.13,5.703l-5.315,2.685l-0.333,1.889l-8.111,0.093l-2.537-6.111l2.315-4.481L1029.366,858.219L1029.366,858.219z"/>
<path id="greenland" fill="#3D3F51" d="M641.9,169.246l-2.518,4.018l4.537,4.537l-2.018,4.537l6.555,8.555l8.055-2.518l10.574-1
	l12.092,13.092l8.055,21.647l-6.537,13.592l9.055-1.518l5.037,3.018l0.5,6.555l-11.074,0.5l6.037,6.037l7.555,1.518l-16.61,22.147
	l-2.018,13.592l3.518,11.074l-2.518,6.555l4.537,14.092l8.555,9.574l2.518-0.5l5.537-1.518l0.5,8.055l3.518,5.037l6.537-0.5
	l5.037-18.629l15.111-18.629l22.666-9.055l14.092-17.629l6.537,3.018h13.592l11.074-11.074l13.592-5.537l1.518-8.555l-8.555-7.555
	l-7.555-2.518l-4.037-10.574l9.574-5.537l15.111,8.055l5.037-5.537l-8.055-4.537l17.129-23.166l-3.018-10.074l-8.055-0.5
	l3.018-9.055l10.074-4.537l20.647-18.129l-6.037-6.537l-23.166,2.018l-12.092,12.092l7.055-15.611l-8.055-2.018l-4.537,8.055
	l-6.537-5.537l-18.129,2.018l5.037-8.055l29.703-1l-7.555-10.074l-32.221-6.037l-13.092,2.018l0.5,6.555l-13.592-4.537l0.5-4.537
	l-9.574,2.018l-2.018,5.037l10.074,3.518l-10.574,7.555l-7.555-8.555l-10.574-3.018l-1.518,8.055h-10.574l-4.037-8.555l-16.61-2.518
	l-9.055,4.537l-0.5,6.037l-11.574-1.518l-7.055,3.018l0.5,7.055v3.518l-13.092,2.518l-6.037-4.018l-4.037,6.537l6.037,6.555
	l12.592-1.518l1,4.037l-9.574,4.537L641.9,169.246L641.9,169.246z"/>
<path id="disko" fill="#3D3F51" d="M682.195,247.798l3.018,4.537l-1.518,5.537h-3.018l-4.037-4.537l1-3.518L682.195,247.798
	L682.195,247.798z"/>
<path id="milne" fill="#3D3F51" d="M808.079,235.206l8.555,2.518l-0.5,7.055l-9.055-4.537l-2.018-2.518L808.079,235.206
	L808.079,235.206z"/>
<path id="australia" fill="#3D3F51" d="M1456.757,869.052l-0.648,46.998l-7.222,5.296l-0.648,4.629l9.851,6.611l24.314-4.629h12.481
	l4.592-6.629l27.592-5.296l19.703,5.963l-1.315,7.944l2.629,7.944l15.11-2.648l0.648,3.963l-9.851,7.277l3.278,2.648l7.222-2.648
	l-1.963,21.851l13.796,10.592l7.889-2.648l3.944,3.963l22.999-3.315l21.684-35.091l7.889-1.981l15.759-29.129l3.944-25.147
	l-9.851-12.574l3.944-2.648l-7.889-24.499l-8.537-5.963l1.315-33.091l-7.889-5.963l-1.963-18.536h-3.944l-13.148,43.683
	l-7.222,0.667l-16.425-16.555l9.203-24.499l-17.073-3.315l-19.055,5.296l-5.259,15.222l-8.537,1.981l-0.648-10.592l-34.813,21.184
	l0.648,7.944l-5.259,7.278h-13.148l-28.258,11.907L1456.757,869.052L1456.757,869.052z"/>
<path id="tasmania" fill="#3D3F51" d="M1576.327,995.492l-3.278,13.24l0.648,9.259l9.851-0.667l11.166-17.203L1576.327,995.492
	L1576.327,995.492z"/>
<path id="new_caledonia" fill="#3D3F51" d="M1726.136,855.145l-0.648,3.315l8.537,11.907l4.592,1.981l0.648-4.629L1726.136,855.145
	L1726.136,855.145z"/>
<path id="sumatra" fill="#3D3F51" d="M1385.112,664.597l-0.519,4.222l12.574,21.129h3.666l26.203,43.832l10.481,1.055l5.241-15.314
	l-8.389-5.278l-1.574-8.444L1385.112,664.597L1385.112,664.597z"/>
<path id="east_malaysia" fill="#3D3F51" d="M1462.257,693.022l5.592,6.463l21.444-7.426l4.241-16.37l9.555-0.685l8.74-6.333
	l-11.333-8.259l-2.593-4.537l-5.592,10.314l2.056,5.926l-3.407,4.944l-6.426-1.648l-15.573,11.426l0.407,6.611L1462.257,693.022
	L1462.257,693.022z"/>
<path id="brunei" fill="#3D3F51" d="M1491.201,667.708l-5.333,6.463l4.37,1.37l2.463-3.444L1491.201,667.708L1491.201,667.708z"/>
<path id="sulawesi" fill="#3D3F51" d="M1509.274,723.002l4.185,5.129l-2.722,7.703v1.463h6.185l2.185-19.259l2,0.556l3.63,17.592
	l3.463,0.926l3.278-7.518l-3.278-11.37l-2.722-4.944l8.555-6.24l-2-2.759l-8.185,5.315h-2.185l-4-5.87l1.278-2.574l6.74-3.296
	l10.185,3.111l3.092-0.185l7.648-7.148l-3.092-3.111l-7.092,5.5h-4.555l-6.907-3.296l-4.907,0.185l-5.463,8.796l-3.463,15.222
	L1509.274,723.002L1509.274,723.002z"/>
<path id="maluku" fill="#3D3F51" d="M1554.939,688.541l-3.463,8.426l5.463,7.148h1.815l2.37-4.759l1.278-1.648l-2.37-2.574
	l-3.463-1.278L1554.939,688.541L1554.939,688.541z"/>
<path id="seram" fill="#3D3F51" d="M1565.679,716.225l-7.463,1.648l-2.185,2.389l1.815,3.111l4.907-1.833l3.092-1.833l4.555,3.667
	l2-1.648l-3.63-4.407L1565.679,716.225L1565.679,716.225z"/>
<path id="java" fill="#3D3F51" d="M1441.943,740.057l-5.092,3.481l1.093,2.926l16.203,3.667l8.185,1.463l3.463,3.667l9.277,0.741
	l4.37,3.667l4-0.926l3.648-3.296l-6.741-3.111l-5.815-4.944l-15.11-3.667L1441.943,740.057L1441.943,740.057z"/>
<path id="bali" fill="#3D3F51" d="M1494.904,756.001l-4,2.204l2.37,2.574l5.815-2.204L1494.904,756.001L1494.904,756.001z"/>
<path id="lombok" fill="#3D3F51" d="M1501.811,754.353l0.722,3.481l4.185,1.093l1.63-2.018l-1.815-2.759L1501.811,754.353
	L1501.811,754.353z"/>
<path id="sumba" fill="#3D3F51" d="M1511.829,763.519l-5.092,0.741l4.555,3.852h3.63L1511.829,763.519L1511.829,763.519z"/>
<path id="flores" fill="#3D3F51" d="M1513.274,757.464l-1.093,2.204l8.185,1.278l6.37-3.667l-3.63-1.093l-5.815,1.648l-2.185-1.833
	L1513.274,757.464L1513.274,757.464z"/>
<path id="timor" fill="#3D3F51" d="M1540.032,758.76l-9.463,7.889l0.907,2.018l4-0.741l4.722-4.407l9.277-1.278l-1.815-3.111
	L1540.032,758.76L1540.032,758.76z"/>
<path id="new_ireland" fill="#3D3F51" d="M1677.693,722.798l-1.63,2.315l8.907,7.889l1.222,4.629l2.426-0.278l0.278-4.759
	l-2.704-2.444L1677.693,722.798L1677.693,722.798z"/>
<path id="new_britain" fill="#3D3F51" d="M1682.156,733.965l-1.759,0.407l-1.074,4.759l-3.37,2.185l-10.129,1.778l0.407,3.815
	l10.666-0.537l6.759-4.222l-0.407-7.352L1682.156,733.965L1682.156,733.965z"/>
<path id="bougainville" fill="#3D3F51" d="M1694.174,742.261l2.296,6.389l4.055,3.944l1.222-1.093l-0.407-4.222l-4.592-5.574
	L1694.174,742.261L1694.174,742.261z"/>
<path id="choiseul" fill="#3D3F51" d="M1705.378,751.779l0.278,4.222l2.574,2.444l2.426-1.5l-2.167-4.5L1705.378,751.779
	L1705.378,751.779z"/>
<path id="new_georgia" fill="#3D3F51" d="M1708.618,762.26l-2.167,2.315l2.296,4.222l2.704,0.815l-0.13-2.852L1708.618,762.26
	L1708.618,762.26z"/>
<path id="santa_isabel" fill="#3D3F51" d="M1713.896,759.816l1.889,4.629l3.648,4.352l2.019-3.259l-2.704-4.629L1713.896,759.816
	L1713.896,759.816z"/>
<path id="malaita" fill="#3D3F51" d="M1723.358,766.76l1.074,5.722l2.574,3.537l2.167-4.481L1723.358,766.76L1723.358,766.76z"/>
<path id="santa_ana" fill="#3D3F51" d="M1726.321,779.556l-0.944,1.63l3.111,4.092l2.167,0.13l-1.352-5.315L1726.321,779.556
	L1726.321,779.556z"/>
<path id="rennell" fill="#3D3F51" d="M1719.433,787.703l-3.241,1.5l2.833,3.944l2.426-1.37L1719.433,787.703L1719.433,787.703z"/>
<path id="espiritu_santo" fill="#3D3F51" d="M1752.487,812.091l-2.296,3.074l0.963,3.463l1.148,0.778l2.093-2.704L1752.487,812.091
	L1752.487,812.091z"/>
<path id="malakula" fill="#3D3F51" d="M1753.635,821.517l0.185,2.5l2.481,0.778l1.722-0.963l-1.722-2.704L1753.635,821.517
	L1753.635,821.517z"/>
<path id="efate" fill="#3D3F51" d="M1757.265,843.849l-1.148,1.741l1.722,1.926l2.87-0.963L1757.265,843.849L1757.265,843.849z"/>
<path id="fiji" fill="#3D3F51" d="M1803.874,839.998l-2.296,3.074l-0.185,3.463l2.667,2.704L1803.874,839.998L1803.874,839.998z"/>
<path id="palawan" fill="#3D3F51" d="M1508.978,627.487l-1.592,3.037l-0.889,3.741l-8.852,11.24l0.537,2.315l3.722-0.537
	l11.5-12.851L1508.978,627.487L1508.978,627.487z"/>
<path id="negros" fill="#3D3F51" d="M1523.31,623.21l-0.185,9.277l3.37,3.389l1.241,6.592l3.37,0.722l1.592-4.111l-2.648-1.963
	l-0.704-11.592L1523.31,623.21L1523.31,623.21z"/>
<path id="cebu" fill="#3D3F51" d="M1532.884,626.784l-0.185,8.203l1.944,3.204l3.37-3.926l-0.889-7.129L1532.884,626.784
	L1532.884,626.784z"/>
<path id="samar" fill="#3D3F51" d="M1534.995,619.636l3.37,4.463l1.593,4.278h3.018l-0.537-7.315l-3.37-2.315L1534.995,619.636
	L1534.995,619.636z"/>
<path id="path7462" fill="#3D3F51" d="M1541.551,636.413l0.704,5.352l-6.203,5l-5.13,0.537l-5.481,5.889l0.185,2.685l5.129-1.611
	l3.537-2.315l3.018,7.666l5.315,3.741l2.13-0.722l1.944-2.315l-4.24-4.278l2.481-1.963l2.833,2.315l1.944-3.204l-1.944-3.926
	l-0.352-8.74L1541.551,636.413L1541.551,636.413z"/>
<path id="luzon" fill="#3D3F51" d="M1512.7,582.008l-4.778,3.389l-0.537,10.703l7.444,14.444l2.481,1.963l3.185-2.148l5.481,0.889
	l1.056,4.815l4.074,0.352l1.944-2.667l-2.481-3.389l-3.018-2.852l-6.37-0.704l-3.37-5.537l3.889-5.889l0.352-5.167l-2.648-6.592
	L1512.7,582.008L1512.7,582.008z"/>
<path id="mindoro" fill="#3D3F51" d="M1515.181,613.932l1.407,5l2.481,1.611l1.778-2.315l-2.833-3.926L1515.181,613.932
	L1515.181,613.932z"/>
<path id="hainan" fill="#3D3F51" d="M1454.276,576.823l-4.426,1.241l-3.185,3.926l2.648,5.167l3.889,0.352l4.426-3.926l1.056-5.167
	L1454.276,576.823L1454.276,576.823z"/>
<path id="taiwan" fill="#3D3F51" d="M1505.441,536.343l-6.555,5l-0.352,9.629l5.666,6.592l1.407-1.241L1505.441,536.343
	L1505.441,536.343z"/>
<path id="kyushu" fill="#3D3F51" d="M1534.643,477.289l-3.018,3.037l1.241,4.278l2.648,0.185l1.778,9.277l2.13,2.315l3.722-3.389
	l1.593-6.074l-4.611-6.592L1534.643,477.289L1534.643,477.289z"/>
<path id="shikoku" fill="#3D3F51" d="M1550.939,471.234l-5.129,4.815l-0.185,5.537l1.241,1.611l6.907-5.889l-0.537-5.889
	L1550.939,471.234L1550.939,471.234z"/>
<path id="honshu" fill="#3D3F51" d="M1543.847,459.809l-9.037,10.351l1.593,2.5l4.426,0.537l8.314-6.426l5.852-1.074l5.315,6.24
	l4.074-1.426l1.593-6.074l7.611-0.185l7.444-8.926l-3.889-14.814l-1.778-7.852l3.889-3.204l-8.852-13.37l-2.296,0.185l-4.778,5.352
	v4.463l2.13,2.5l0.704,11.777l-5.481,6.778l-3.185-1.963l-2.481,5.537l-0.537,5.166l1.944,3.037l-1.241,2.315l-4.074-3.389h-2.833
	l-2.481,1.426L1543.847,459.809L1543.847,459.809z"/>
<path id="hokkaido" fill="#3D3F51" d="M1559.087,379.182l-2.833,2.5l1.426,5.352l2.481,2.5l-0.185,8.203l-3.185,1.241l-2.481,5.537
	l7.259,9.981l4.778-1.611l0.889-2.5l-5.129-4.629l3.185-4.111l3.37,0.537l2.648,2.852l0.185-5.889l7.259-5.889l4.074-1.074
	l-3.37-5.703l-1.593-2.5l-2.648,1.778l-2.296,2.852l-4.963-1.074l-5.13-3.389L1559.087,379.182L1559.087,379.182z"/>
<path id="iturup" fill="#3D3F51" d="M1585.808,373.645l-4.963,6.963l0.352,3.389l2.481-1.074l5.833-7.315L1585.808,373.645
	L1585.808,373.645z"/>
<path id="urup" fill="#3D3F51" d="M1592.364,363.479l-1.778,4.815l0.185,3.204l3.018-1.963l2.833-5.703v-2.13L1592.364,363.479
	L1592.364,363.479z"/>
<path id="paramushir" fill="#3D3F51" d="M1602.807,321.018l-2.296,2.852l0.185,4.463l2.13-0.185l3.537-6.24L1602.807,321.018
	L1602.807,321.018z"/>
<path id="onekotan" fill="#3D3F51" d="M1598.567,331.906v7.852l2.481,0.889l1.778-2.852v-6.055L1598.567,331.906L1598.567,331.906z"
	/>
<path id="sakhalin" fill="#3D3F51" d="M1526.144,303.537l-0.167,11.426l14.333,22.129l5.13,19.258l9.037,17.129l3.537,1.241
	l3.018-2.5l1.407-4.111l-12.925-14.092l0.352-7.315l2.833-1.241l0.704-4.278l-25.314-35.85L1526.144,303.537L1526.144,303.537z"/>
<path id="bering_island" fill="#3D3F51" d="M1626.01,268.038l-3.537,0.352l2.13,3.037l4.426,3.037l1.241-1.426L1626.01,268.038
	L1626.01,268.038z"/>
<path id="medny" fill="#3D3F51" d="M1632.899,270.186l0.537,3.037l5.481,1.611l0.537-2.148L1632.899,270.186L1632.899,270.186z"/>
<path id="attu" fill="#3D3F51" d="M1662.99,281.834l2.315,4.148l3.852-0.259l0.778-2.852L1662.99,281.834L1662.99,281.834z"/>
<path id="st._lawrence_island" fill="#3D3F51" d="M1679.193,147.617l-4.37,2.852l-1.037,3.629l2.055,2.333l4.629-1.555l4.63,1.555
	l2.574,0.778l-0.259-8.555L1679.193,147.617L1679.193,147.617z"/>
<path id="wrangel-w" fill="#3D3F51" d="M192.584,82.675l-7.203,6.537l2.167,4.833l3.852-2.667l2.167,2.426l7.185-2.648l-0.241-4.111
	L192.584,82.675L192.584,82.675z"/>
<path id="unalaska_west" fill="#3D3F51" d="M139.197,280.704l-0.315,5.574l4-0.926v-2.481L139.197,280.704L139.197,280.704z"/>
<path id="mauritius" fill="#3D3F51" d="M1182.398,815.369l-2.815,3.685l0.556,3.981l5.926-4.833L1182.398,815.369L1182.398,815.369z
	"/>
<path id="reunion" fill="#3D3F51" d="M1171.972,821.628l-4.222,0.278l-0.278,3.685l2.815,0.574l4.222-1.981L1171.972,821.628
	L1171.972,821.628z"/>
<path id="madagascar" fill="#3D3F51" d="M1144.047,767.093l-3.944,9.37l-6.759,11.925l-11.833,0.852l-5.074,5.963l0.852,18.185
	l-7.333,8.518l0.852,14.481l6.203,7.092l7.333-0.852l7.333-5.407l-1.685-8.518l16.907-29.258l-3.389-3.685l3.389-7.092l3.667,1.13
	l1.13-2.833l-3.389-14.481l-1.981-5.963L1144.047,767.093L1144.047,767.093z"/>
<path id="grande_comore" fill="#3D3F51" d="M1116.993,763.964l0.852,2.833l3.667,0.574l1.407-3.685L1116.993,763.964
	L1116.993,763.964z"/>
<path id="mayotte" fill="#3D3F51" d="M1122.344,769.648l1.407,3.13h2.259l1.13-3.981L1122.344,769.648L1122.344,769.648z"/>
<path id="aldabra" fill="#3D3F51" d="M1162.658,740.094l-1.13,2.278l3.092,2.555l2.259-2.555L1162.658,740.094L1162.658,740.094z"/>
<path id="praslin" fill="#3D3F51" d="M1178.453,723.058l-3.389,2.278l2.537,3.981h3.389L1178.453,723.058L1178.453,723.058z"/>
<path id="mahe" fill="#3D3F51" d="M1179.861,733.002l-2.259,2.555l1.685,2.555l3.093,0.574l0.278-5.407L1179.861,733.002
	L1179.861,733.002z"/>
<path id="male" fill="#3D3F51" d="M1262.746,670.504l0.556,4.833l3.092,1.13l0.556-4.259L1262.746,670.504L1262.746,670.504z"/>
<path id="maldive" fill="#3D3F51" d="M1266.691,680.726l-0.278,5.963l2.259,1.13l1.981-3.981L1266.691,680.726L1266.691,680.726z"/>
<path id="gan" fill="#3D3F51" d="M1267.265,692.374l-1.981,1.981l2.259,1.981l2.815-1.981L1267.265,692.374L1267.265,692.374z"/>
<path id="path151" fill="#3D3F51" d="M737.285,478.4l-2.518,2.537l4.518,2.537l0.5-3.537L737.285,478.4L737.285,478.4z"/>
<path id="terceira" fill="#3D3F51" d="M750.859,476.882l-3.018,2.018l2.518,2.018l4.018-1.018L750.859,476.882L750.859,476.882z"/>
<path id="pico" fill="#3D3F51" d="M752.858,483.974l-1.5,4.055l2,2.537l2.518-2.018L752.858,483.974L752.858,483.974z"/>
<path id="sao_miguel" fill="#3D3F51" d="M764.914,492.067l-1,2.537l1.5,1.518l4.018-2.537L764.914,492.067L764.914,492.067z"/>
<path id="madeira" fill="#3D3F51" d="M803.097,514.325l-2,2.537l2,2.537l3.018-1.518L803.097,514.325L803.097,514.325z"/>
<path id="lanzarote" fill="#3D3F51" d="M816.875,546.379l-3.241,1.87l1.5,1.518L816.875,546.379L816.875,546.379z"/>
<path id="gran_canaria" fill="#3D3F51" d="M805.616,546.731l-4.018,1.018l2,3.037h3.018L805.616,546.731L805.616,546.731z"/>
<path id="tenerife" fill="#3D3F51" d="M796.061,543.694l-2.518,2.537l3.518,3.037l2-4.555L796.061,543.694L796.061,543.694z"/>
<path id="santo_antao" fill="#3D3F51" d="M764.914,614.543l-3.518,2.018l2.518,2.018l3.018-1.518L764.914,614.543L764.914,614.543z"
	/>
<path id="boa_vista" fill="#3D3F51" d="M773.561,618.617l-2.296,2.037l1.63,3.018l3.926-1.759L773.561,618.617L773.561,618.617z"/>
<path id="santiago" fill="#3D3F51" d="M768.543,624.339l-2.944,1.759l3.167,4.241l2.5-1.315L768.543,624.339L768.543,624.339z"/>
<path id="guadeloupe" fill="#3D3F51" d="M559.44,601.266l-2.778,1.148l0.981,2.463l3.259-2.13l-0.648-0.667L559.44,601.266
	L559.44,601.266z"/>
<path id="dominica" fill="#3D3F51" d="M564.014,604.062l-1.63,3.463l1.963,2.63l2.444-2.13L564.014,604.062L564.014,604.062z"/>
<path id="martinique" fill="#3D3F51" d="M569.569,613.599l-1.963,1.815l1.463,2.963l2.778-0.815L569.569,613.599L569.569,613.599z"
	/>
<path id="st._lucia" fill="#3D3F51" d="M569.403,621.006l-1.315,2.796l2.13,2.296l2.778-1.481L569.403,621.006L569.403,621.006z"/>
<path id="st._vincent" fill="#3D3F51" d="M569.569,628.08l-2.278,1.648l1.796,3.296l2.944-1.648L569.569,628.08L569.569,628.08z"/>
<path id="grenada" fill="#3D3F51" d="M566.792,634.487l-2.13,2.13l0.815,1.315h2.611l0.815-2.148L566.792,634.487L566.792,634.487z"
	/>
<path id="trinidad" fill="#3D3F51" d="M569.884,640.913l-1.963,1.815l-2.13,0.333v2.63l3.926,3.611l1.63-2.63l0.981-2.963
	l-0.333-2.463L569.884,640.913L569.884,640.913z"/>
<path id="puerto_rico" fill="#3D3F51" d="M549.163,596.988l-4.889-1.648l-3.926,2.463l1.963,2.296l6.685,0.981L549.163,596.988
	L549.163,596.988z"/>
<path id="haiti-dominican_border" fill="#3D3F51" d="M511.794,586.47l-3.092,3.167l3.537,1.444l0.518,4.426l-7.833,0.685
	l0.796,4.259l2.278,0.167l1.315-1.963l9.148,0.296l1.648,3.167l2.111-2.481l6.166-1.667l5.426,1.148l0.63-3.278l-9.777-6.389
	l-6.333-2.37L511.794,586.47L511.794,586.47z"/>
<path id="domincan_republic" fill="#3D3F51" d="M534.459,595.84l-9.796-6.407l-4.629-1.574l-1.555,11.111l1.63,3.13l2.13-2.463
	l6.203-1.648l5.389,1.148L534.459,595.84L534.459,595.84z"/>
<path id="haiti" fill="#3D3F51" d="M511.775,586.47l6.37,0.667l-0.759,7.815l-0.63,4.111l-7.426-0.407l-1.315,1.981l-2.278-0.167
	l-0.815-4.278l7.833-0.648l-0.481-4.444l-3.592-1.481L511.775,586.47L511.775,586.47z"/>
<path id="falklands_west" fill="#3D3F51" d="M617.493,1017.565l-4.87-0.537l-4.852,3.259l3.518,3.815L617.493,1017.565
	L617.493,1017.565z"/>
<path id="falklands_east" fill="#3D3F51" d="M622.345,1015.121l-1.611,5.166l-4.592,4.074l0.278,1.352l7.833-3l3.241-4.074
	L622.345,1015.121L622.345,1015.121z"/>
<path id="iceland" fill="#3D3F51" d="M799.727,293.759l-3.629-2.055l-4.889,3.092l-4.204,3.889l0.111,2.167l5.444,0.685
	l-0.333,3.889l-1.926,1.944l0.463,1.259l5.444,0.352v6.296l7.833,1.37l4.648,2.63l5.222,0.222l8.963-4.463l6.926-9.148l0.111-6.185
	l-4.204-3.555l-3.518-2.981l-1.592,1.148l-2.389,3.092l-2.722-0.352l-2.722-2.981l-3.518,0.333l-5.111,4.241l-3.074,3.315
	l-1.704-1.481l-0.111-3.667l1.704-1.148L799.727,293.759L799.727,293.759z"/>
<path id="spitsbergen" fill="#3D3F51" d="M951.388,176.449l-3.055-3.074l-6.778,3.296h-12.444l-1.963,7.259l6.981,6.166l3.055-0.444
	l4.37-7.481l3.704,2.648l-2.63,5.278l-1.315,7.703l3.055,4.833l6.555-11l8.518-10.351l-3.278-2.852L951.388,176.449L951.388,176.449
	z"/>
<path id="nordaustlandet" fill="#3D3F51" d="M955.092,163.246l-5.463,5.055l3.278,5.055h5.889l2.407,3.296l7.203,3.741l8.296-4.833
	l5.685-4.833l-1.963-3.963l-5.685-3.296l-4.148,3.741l-2.833-3.518l-2.185,0.222l-2.833,6.166l-4.148-4.185l-0.444-2.852
	L955.092,163.246L955.092,163.246z"/>
<path id="edgeoya" fill="#3D3F51" d="M967.536,185.912l-4.37,3.963l-3.704,2.852l1.741,3.074l3.5,1.093l5.685-2.648l2.63-3.296
	l-2.407-3.963L967.536,185.912L967.536,185.912z"/>
<path id="prince_george" fill="#3D3F51" d="M1061.68,148.357l3.185,1.278l-2.241,3.852v5.463l-4.778,2.889h-5.092l-2.87-3.537
	l0.315-3.852l2.241-2.889h4.463L1061.68,148.357L1061.68,148.357z"/>
<path id="salisbury" fill="#3D3F51" d="M1073.791,144.821v3.852l3.185,2.574l4.463-0.315l3.833-3.537v-2.574h-3.5l-2.87,0.963
	l-2.241-2.574L1073.791,144.821L1073.791,144.821z"/>
<path id="wilczek" fill="#3D3F51" d="M1091.975,145.154l2.241,4.815l4.463,0.315l3.185-1.278l-1.593-4.5l-4.148-0.963
	L1091.975,145.154L1091.975,145.154z"/>
<path id="bell" fill="#3D3F51" d="M1110.141,138.728l-3.5-0.648l-3.185,3.222l1.593,2.889l0.963,4.5l4.148-3.204l0.963-3.537
	L1110.141,138.728L1110.141,138.728z"/>
<path id="novaya_zemlya_north" fill="#3D3F51" d="M1129.585,172.782l-0.963,4.5l-7.333,6.426l-15.629,3.537l-12.759,21.203
	l-2.241,6.111l12.759,3.222l1.907-7.703l3.833-11.888l9.889-5.148l8.296-6.426l6.055-2.574h3.185v-8.666L1129.585,172.782
	L1129.585,172.782z"/>
<path id="novaya_zemlya_south" fill="#3D3F51" d="M1088.457,219.688l8.611,0.963l2.87,9.963l7.333,7.703l-2.555,5.148h-4.463
	l-4.148-4.815l-9.24-0.315l-3.833-5.148v-3.537l5.74-1.611L1088.457,219.688L1088.457,219.688z"/>
<path id="komsomolets" fill="#3D3F51" d="M1223.026,110.137l-4.148-2.574h-4.778l-0.963,2.889l-5.092,2.889l-3.833,1.278
	l-0.63,3.852l8.926,0.648L1223.026,110.137L1223.026,110.137z"/>
<path id="october" fill="#3D3F51" d="M1232.896,111.1l-2.241,4.815l-4.463-0.315l-7.018,5.148l-1.907,6.426h4.463l2.555-4.185
	l6.055,4.5l5.74-2.574l4.148-3.537l-1.593-5.463l-2.241-3.852L1232.896,111.1L1232.896,111.1z"/>
<path id="bolshevik" fill="#3D3F51" d="M1242.155,114.637l2.241,9l3.5,8.352l3.833-6.74l7.333-1.611v-4.815l-4.778-3.537
	L1242.155,114.637L1242.155,114.637z"/>
<path id="kotelny" fill="#3D3F51" d="M1417.111,100.23l4.981,4.185l3.537-1.463l1.037-5.87l-7.259-5.018l-4.778,3.148L1403,96.267
	v5.241l-12.259,0.204v8.574l14.333,10.666l3.741-2.722l-0.833-7.537l9.148-2.296l-1.87-3.555l-3.315-3.352L1417.111,100.23
	L1417.111,100.23z"/>
<path id="novaya_sibir" fill="#3D3F51" d="M1430.407,95.211l3.315,6.278l12.888-1.463l3.537-4.611l-0.833-3.981l-3.537-1.463
	l-3.315,2.518l-9.555,2.093L1430.407,95.211L1430.407,95.211z"/>
<path id="lyakhovsky" fill="#3D3F51" d="M1429.573,119.692l-6.444-1.667l-3.722,3.981l-1.667,5.444l8.722-0.833l6.648-3.352
	L1429.573,119.692L1429.573,119.692z"/>
<path id="wrangel" fill="#3D3F51" d="M1596.585,83.49l-5.407-1.667l-6.222,2.296l-3.111,4.611l3.944,5.241l10.388-4.611l2.074-2.296
	L1596.585,83.49L1596.585,83.49z"/>
<path id="sri_lanka" fill="#3D3F51" d="M1307.448,646.968l0.463,5.037l0.463,3.667l-2.722,0.463l1.37,8.24l4.093,2.296l6.352-3.667
	l-1.815-8.685l0.463-3.204l-5.907-5.481L1307.448,646.968L1307.448,646.968z"/>
<path id="cuba" fill="#3D3F51" d="M456.203,570.804v2.352l9.851,0.185l4.648-2.704l0.722,1.981l9.666,2.352l8.592,7.759
	l-1.963,2.704l0.352,3.074l7.166,1.796l7.166-3.241l3.222-3.241l-4.648-2.352l-23.981-14.074l-8.407-0.907L456.203,570.804
	L456.203,570.804z"/>
<path id="bimini" fill="#3D3F51" d="M490.943,556.379l-2.333-0.722l-0.185,4.5l2.87,2.889l1.963-2.889L490.943,556.379
	L490.943,556.379z"/>
<path id="andros" fill="#3D3F51" d="M495.591,563.416l-3.222,1.796l3.037,4.333l1.611-2.167L495.591,563.416L495.591,563.416z"/>
<path id="inagua" fill="#3D3F51" d="M505.979,566.656l-3.407-0.185l0.352,2.167l2.5,3.611l2.148-2.352L505.979,566.656
	L505.979,566.656z"/>
<path id="eleuthera" fill="#3D3F51" d="M504.368,562.342l-5.555-2.352l-1.074-5.592l2.148-0.907l2.148,4.333l2.148,1.63
	L504.368,562.342L504.368,562.342z"/>
<path id="grand_bahama" fill="#3D3F51" d="M498.998,550.972l-2.87-0.722l-0.537-3.611l-3.037-1.074l1.963-1.981l3.574,1.259
	l2.685,1.63L498.998,550.972L498.998,550.972z"/>
<path id="jamaica" fill="#3D3F51" d="M489.683,594.266l-6.444,1.63v1.796l3.759,2.167h3.944l2.5-2.889L489.683,594.266
	L489.683,594.266z"/>
<path id="irian_jaya" fill="#3D3F51" d="M1587.79,704.91l-7.722,0.87l-4.963,3.63l2.055,4.148l8.407,1.555v1.555l-5.315,4.315
	l2.574,8.981l2.574,0.167l2.222-8.815h4.111l1.722,8.629l20.055,16.592l0.519,12.962l6.852,7.426l3.092-0.167l0.685-45.776
	l-11.648-8.111l-10.981,7.426l-3.944,2.426l-6.518-4.148l-0.167-13.129L1587.79,704.91L1587.79,704.91z"/>
<path id="alaska-westcopy" fill="#3D3F51" d="M219.657,159.653l-15.536,3.685l3.204,17.499l16.907,4.611l0.907,3.685l-25.129,7.833
	l-14.166,23.481l5.018,24.869l8.222,5.518l6.407-5.981l1.833,3.685l-7.777,9.203l-30.166,13.814l-19.203,4.611l-0.463,6.907
	l44.332-12.888l18.277-5.074l16.907-20.721l18.74-12.425l-9.592,16.11l10.518,1.389l17.833-7.833l3.204,12.888l12.333,2.759
	l12.796,12.425l0.907,9.203l-1.833,2.296l2.278,8.74h3.204l0.463-14.74h3.648l0.907,36.369l9.148-7.833l-6.407-37.758h-9.592
	l-10.518-13.351l51.646-87.497l-51.183-40.054l-57.127,11.055l-2.278,17.499l12.333,7.37l-4.574,11.981L219.657,159.653
	L219.657,159.653z"/>
<path id="galapagos" fill="#3D3F51" d="M408.279,702.762l-1.148,5.092l-2.13,2.148l1.463,2.63l3.759-1.481l1.796-3.13l-1.148-3.296
	L408.279,702.762L408.279,702.762z"/>
<path id="banks" fill="#3D3F51" d="M424.501,142.987l0.407,7.444l-14.777,15.314l3.704,12.407l10.666-2.889l6.166-9.111
	l15.592-5.796l12.722-0.833l-9.851-10.759l-4.926,3.722l-3.704-1.241l-2.055-4.555l-4.518-4.555L424.501,142.987L424.501,142.987z"
	/>
<path id="prince_patrick" fill="#3D3F51" d="M443.796,121.062l-3.278,5.796l16.018,5.796l5.741-8.685l2.463,5.796h4.111l7.796-8.685
	l-9.444-2.481l-3.704-2.889l-4.926,4.963L443.796,121.062L443.796,121.062z"/>
<path id="eglinton" fill="#3D3F51" d="M471.721,132.654l-12.722,5.37v4.129l16.425,6.203l-3.704,4.129l2.463,5.37l10.259-4.555
	h8.629l4.111,6.611l6.981-7.037l-1.648-6.629l-5.741,2.074l-0.815-8.277l2.87-4.963h-2.87l-4.518,2.889l-2.055,1.648l1.241,5.796
	l-3.278,2.481l-4.926-0.407l-1.241-7.444L471.721,132.654L471.721,132.654z"/>
<path id="mackenzie_king" fill="#3D3F51" d="M488.554,119.822l-1.241,4.129l7.796,3.722l5.741-3.315l-0.407-2.481L488.554,119.822
	L488.554,119.822z"/>
<path id="king_christian" fill="#3D3F51" d="M494.702,112.785l-5.741,2.074l0.407,2.889l12.722-0.833l-0.407-2.889L494.702,112.785
	L494.702,112.785z"/>
<path id="ellef_ringnes" fill="#3D3F51" d="M522.219,119.822l-0.815,2.889l-2.055,2.889v4.129l7.796-1.241l8.203,7.037h2.87v-7.037
	l-8.203-9.111L522.219,119.822L522.219,119.822z"/>
<path id="amund_ringnes" fill="#3D3F51" d="M543.163,128.099l3.278,3.722l-2.87,4.963l2.055,5.37l9.037-4.963v-3.722l-5.333-6.203
	L543.163,128.099L543.163,128.099z"/>
<path id="axel_heiberg" fill="#3D3F51" d="M555.07,118.581l0.407,6.611h11.092l2.87,2.481l-0.407,2.889l-9.852,1.241l6.981,9.518
	l9.444,1.648l13.129-5.796l-18.888-28.554l-5.741,3.722l0.407,4.963l-6.574-2.481L555.07,118.581L555.07,118.581z"/>
<path id="victoria" fill="#3D3F51" d="M459.407,165.338l-15.592,4.129l-9.037,7.87l0.815,8.685l16.425,4.963l-3.704,8.277
	l-11.907-7.444l-3.278,6.203l7.796,5.37l-0.407,8.685l11.907,3.315l14.37-0.833l2.463-4.555l10.666,12l7.389-2.481l1.241-8.277
	l5.333,3.722l0.815-8.277l-6.574-4.129l0.407-26.055l-5.741-4.555l-6.148,8.277L459.407,165.338L459.407,165.338z"/>
<path id="prince_of_wales" fill="#3D3F51" d="M509.497,183.541l-5.333-2.481l-2.87,3.722l5.741,9.111l0.407,8.685l12.314-7.444
	v-10.759l4.518-4.555l-4.518-3.315h-7.389L509.497,183.541L509.497,183.541z"/>
<path id="prescott" fill="#3D3F51" d="M535.774,179.819l-8.629,7.037l2.055,8.685h5.333l2.463-4.555l3.704,3.722l3.704-0.407
	l9.851-8.277L535.774,179.819L535.774,179.819z"/>
<path id="cornwallis" fill="#3D3F51" d="M534.941,166.153l-2.055,4.129l9.037,3.315l2.463-3.722L534.941,166.153L534.941,166.153z"
	/>
<path id="bathurst" fill="#3D3F51" d="M529.608,150.431l-9.037,1.241l-5.333,4.963l9.852,0.407l-2.87,7.444l2.055,3.315l2.87-0.407
	l6.981-11.166L529.608,150.431L529.608,150.431z"/>
<path id="devon" fill="#3D3F51" d="M545.218,147.543l-4.926,1.648l0.815,6.611l8.203,5.37l0.407,4.129l-2.463,2.481l1.241,8.277
	l31.61,10.333l8.629,2.889l8.629-7.444l-10.259-8.277l-9.444,2.481l-13.129-1.241l-4.926-4.963l-1.241-13.648l-8.203-4.129
	L545.218,147.543L545.218,147.543z"/>
<path id="baffin" fill="#3D3F51" d="M571.069,190.578l-9.037-0.833l-10.666,4.129l-5.741,7.852l1.648,21.518l17.647,0.833
	l16.833,8.277l11.907,13.648l9.037-0.407l-2.463,12.814l-8.203,13.648l-9.037,4.129l-6.574-1.241l-3.278-2.889l-4.926,6.611
	l2.055,6.611l6.981,0.407l8.629-4.129l7.389,19.036l18.481,12l12.722-16.129l-10.666-17.37l6.166-7.037l8.629,14.481l15.592-13.648
	l-2.87-6.203l-10.666,3.315l-7.389-20.277l6.981-11.574l-13.962-14.888l-7.796,5.37l-7.389-16.129l-15.592,2.074l-4.111-19.444
	l-12.722,8.685l-1.241,10.759h-6.981l0.815-9.518L571.069,190.578L571.069,190.578z"/>
<path id="bylot" fill="#3D3F51" d="M589.55,198.022l-3.278,3.315l2.87,4.555l13.555,1.648l-8.629-9.111L589.55,198.022
	L589.55,198.022z"/>
<path id="ellesmere" fill="#3D3F51" d="M576.421,151.265v3.722l-9.037,2.074l2.463,4.129l10.259,4.129l11.5,1.241l8.203,5.796
	l8.203-4.555l-5.741-5.796h7.389l4.518-4.963l11.092-1.648v-2.481l-6.166-4.129l0.815-4.555l17.24,2.889l25.462-9.926l-9.444-2.889
	l2.463-3.315h19.703l3.278-3.315L638.789,113.6l-9.444-3.315l-10.259,7.444l-11.5-9.518l-6.166-0.407l-1.241,7.87l-7.796-7.037
	l-9.037,2.889l1.648,4.555l13.555,2.889l-0.815,6.611l7.389,4.555l18.073-4.555l0.407,6.203l-14.777,7.037l-9.037-7.037
	l-8.203,0.833l8.203,11.592l-4.111,2.074l-6.166-5.37l-4.518,2.889l4.111,7.852h6.981l-1.648,7.444l-5.741-0.833l-7.389-7.87
	L576.421,151.265L576.421,151.265z"/>
<path id="southhampton" fill="#3D3F51" d="M539.83,265.131l-7.833,9.851l-0.482,10.851l6.852-3.944h8.315l5.87,5.426l5.389-4.444
	L539.83,265.131L539.83,265.131z"/>
<path id="newfoundland" fill="#3D3F51" d="M635.215,393.274l-19.573,18.74l1.963,4.444l23.962,8.87l3.426-5.907l-1.963-9.851
	l-7.833,0.981l-4.407-4.926l7.333-7.389L635.215,393.274L635.215,393.274z"/>
<path id="canada" fill="#3D3F51" d="M340.226,166.635l3.685,5.574l1.852,7.444l9.222,2.315l6.463-6.963l5.537,2.796l15.685,1.389
	l11.074-4.648l1.852,15.333h6.463v-6.5l6.463,0.463l16.148,19.055l10.611,6.5l-5.537,8.833l2.315,2.315l20.721,4.185l0.463,9.296
	l5.537,0.926l1.389-13.944l8.759-2.315l6.463,9.759l13.833,6.5l6.926,1.389l4.611-5.574l0.463-8.833l8.296-5.111l2.759,7.444
	l-7.389,13.018l0.926,6.5l4.148-6.5l8.296-7.444l0.463-9.759l-4.611-7.444l1.389-6.037l11.074-5.574l5.074,3.722l0.926,32.536
	l7.833-6.963l4.611,2.796l-6.463,11.148l8.296,1.852l12-18.592l10.148,10.685l-4.148,19.055l-10.148,5.574l-9.685-4.648
	l-17.518,3.722l1.852,6.037l-4.611,7.444l-14.296,3.259l-16.148,12.555l-14.296,19.055l-1.852,6.037l9.685,3.722l3.685,9.296
	l13.37,13.481l21.221,9.296l-4.611,21.37l-0.463,6.037l5.537,3.722l7.389-9.759l0.926-18.592l11.537-0.463l5.537-10.685
	l0.926-16.259l14.759-28.814l18.444,6.5l9.685,13.481l-4.148,13.481l7.389,4.185l17.981-12.092l5.074,32.999l16.61,19.981
	l0.463,10.222l-18.444,4.648l-8.759,9.296l-18.444-4.185l-9.222-0.463l-16.148,12.555l9.685-2.315l12-2.315l2.315,2.796
	l-3.222,10.222l0.463,9.296l5.537,3.722l5.537-1.389l2.778-4.185h3.685l-6,11.148l-11.537,0.463l-5.074,7.444h-6.463l-1.852-5.574
	l9.222-9.296l-11.074,3.722l-0.5-15.796l-3.185-1.852l-9.685,4.185l-0.926,7.907h-22.147l-18.907,13.018l-25.369,8.37l-2.759-3.722
	l12.777-19.073l-7.259-6.981l-4.611-8.852l-9.389-7.166l-10.074-0.833l-18.055-12.648l-130.939-21.518l-2.167-8.87l-12-11.148
	v-9.296l1.852-8.37l-0.926-4.648l-4.611-4.648l-0.926-7.444l12-8.37l-7.389-39.961l-10.148-0.463l-9.222-12.092L340.226,166.635
	L340.226,166.635z"/>
<path id="usa" fill="#3D3F51" d="M322.708,369.738l-1.852,7.444l-6.463-4.185h-3.222l-1.852,7.907l-22.61,50.665l6,44.146
	l7.389,3.722l1.389,12.092h15.222l14.759,11.148l29.054,2.796l3.222,14.87l4.611,3.259l6.463-6.5l5.074,2.315l4.611,21.37
	l7.833,5.111l6.463-12.092l19.833-14.407l12.907,6.037l11.074,0.926l0.463-6.963l23.055,0.463l4.611,5.111l0.926,11.611l-2.759,6.5
	l3.222,11.148h6.926l6.926-10.685l-2.759-5.111l-2.759-11.148l4.148-12.555l18.907-16.259l14.296-4.185l-1.852-13.481l19.833-21.388
	l19.833-3.259l-3.222-11.129l19.37-11.148v-14.87l-1.852-0.926l-6.926,2.315l-0.926,9.111l-23.018,0.278l-18.036,11.981
	l-28.314,9.259l-4.518-5.537l12.851-19.444l-6.352-6.055l-4.315-8.222l-8.944-7.185l-9.722-0.815l-18.37-12.537L322.708,369.738
	L322.708,369.738z"/>
<path id="haida_gwaii" fill="#3D3F51" d="M295.061,314.314l-3.148,6.037l1.093,4.278l2.055,1.278l-0.481,1.741l-2.204,0.63
	l0.63,6.352l2.37,2.389l1.889-2.055l-2.37-6.185l1.407-4.926l3.463-4.611l-2.518-4.278L295.061,314.314L295.061,314.314z"/>
<path id="vancouver" fill="#3D3F51" d="M305.468,350.498l-2.833,1.111l5.204,6.037l1.259,7.148l5.203,5.555l4.407-0.796v-7.296
	l-5.352-3.333L305.468,350.498L305.468,350.498z"/>
<path id="guatemala" fill="#3D3F51" d="M408.112,616.358l10.981,8.037l11.074-13.759l-1.889-2.852l-3.778-0.13v-8.055l-2.833-1.722
	l-8.574,2.555l3.278,7.555L408.112,616.358L408.112,616.358z"/>
<path id="honduras" fill="#3D3F51" d="M431.575,611.284l17.11-0.648l5.074,6.037l-3.167-0.722l-6.092,0.259l-7.963,7.481
	l-3.407,7.574l-2.241-1.185l-0.019-8.296l-4.926-3.296L431.575,611.284L431.575,611.284z"/>
<path id="el_salvador" fill="#3D3F51" d="M420.649,625.154l8.703,4.333l-0.13-6.87l-4.463-2.722L420.649,625.154L420.649,625.154z"
	/>
<path id="nicaragua" fill="#3D3F51" d="M450.444,617.451l4.055,0.815l0.13,8.315l-4.722,13.481l-12.722-1.259l-2.833-6.5
	l3.778-7.889l7.166-6.666L450.444,617.451L450.444,617.451z"/>
<path id="costa_rica" fill="#3D3F51" d="M449.778,641.283l2.574,5.037l2.093,2.778l-2.815,8.352l-5.37-3.778l-8.777-8.037v-5.315
	L449.778,641.283L449.778,641.283z"/>
<path id="panama" fill="#3D3F51" d="M455.722,649.857l-2.704,8.444l8.926,2.315l5.537,1.093l0.944-6.537l5.944-3l5.278,2.722
	l2.074,3.315l2.518-0.296l1.981-6.018l-6.592-2.722l-5-2.722l-5,3.407l-5.944,3l-6.074-2.444L455.722,649.857L455.722,649.857z"/>
<path id="colombia" fill="#3D3F51" d="M517.09,631.654l-3.815-0.389l-25.221,20.796l-2.667,7.315l-3.444,0.389l1.537,16.166
	l-8.796,21.573l9.555,8.092l12.24,0.778l8.407,12.333l12.222,0.389l-0.389,9.24h4.574l4.963-16.944l-4.592-5.778l1.148-10.777
	l9.555-0.778l-1.148-25.036l-21.407-6.926l-4.963-13.481L517.09,631.654L517.09,631.654z"/>
<path id="venezuela" fill="#3D3F51" d="M511.034,643.024l0.815,4.796l6.018,1.907l1.37-8.833l6.352-6.574l6.352,7.444l14.611,3.981
	l12.37-2.593l8.426,10.388l6.352,3.981l-6.963,10.611l2.333,8.037l-3.981,4.926l-4.129,3.463l-8.944-4.5l-2.055,2.074v6.407
	l6.537,3.111l-4.815,5.203l-4.815,5.203l-6.352-0.518l-6.389-7.018l-1.352-26.406l-21.814-7.444l-3.963-11.611L511.034,643.024
	L511.034,643.024z"/>
<path id="guyana" fill="#3D3F51" d="M575.088,658.227l13.37,12.111l-5.315,6.148l-0.426,3.648l6.981,7.203l-0.167,6.926
	l-12.148,4.629l-7.278-9.833l1.555-11.814l-3.111-8.796L575.088,658.227L575.088,658.227z"/>
<path id="suriname" fill="#3D3F51" d="M590.05,671.208l3.778,3.463l5.852-3.63l5.333,0.167l-0.685,2.074l-2.241,4.666l-0.352,11.611
	l-10.648,4.333l0.518-7.444l-6.87-6.407l0.352-3.296L590.05,671.208L590.05,671.208z"/>
<path id="guyane" fill="#3D3F51" d="M606.716,672.43l10.833,6.759l-5.666,11.259l-2.055,2.592l-6.018-3.463l0.167-12.129
	L606.716,672.43L606.716,672.43z"/>
<path id="ecuador" fill="#3D3F51" d="M473.517,698.448l-8.759,5.444l-0.63,8.074l-1.759,2.648l5.518,5.296l-2.389,2.611l0.556,6.666
	l9.87,2.352l14.944-17.685l-0.037-6.166l-7.166-0.463L473.517,698.448L473.517,698.448z"/>
<path id="peru" fill="#3D3F51" d="M463.944,723.761l-3.592,3.63l0.241,5.796l31.369,57.183l32.573,20.999l5.037-8.444l1.204-18.573
	l-2.63-11.574l-8.87-14.962l-5.278,1.685l-2.389,2.648l-10.537-12.074l2.63-14.24l12.222-7.963l-0.963-7.481l-12.444-0.482
	l-6.463-10.851l-3.592-1.204l0.241,6.518l-16.036,19.055l-11.981-2.889L463.944,723.761L463.944,723.761z"/>
<path id="bolivia" fill="#3D3F51" d="M526.312,766.852l15.24-6.648l5.037,0.482l3.352,13.999l23.221,7.722l3.833,11.833l9.574,1.204
	l4.074,10.129l-2.87,9.166l-15.573,1.204l-5.741,14.722l-12.222-0.241l-3.833-0.722l-7.055,6.852l-3.481-0.333l-11.981-27.758
	l3.315-4.963l1.167-19.629l-2.963-11.685L526.312,766.852L526.312,766.852z"/>
<path id="paraguay" fill="#3D3F51" d="M587.513,816.332l4.074,4.444l-0.481,9.407l11.74-0.722l8.87,11.351l-0.722,10.129
	l-5.741,8.685l-11.74,0.482l-0.482-4.833l3.352-7.963l-11.5-7.24h-9.574l-7.185-7.722l5.222-14.925L587.513,816.332L587.513,816.332
	z"/>
<path id="uruguay" fill="#3D3F51" d="M603.438,876.367l-3.796,4.055l1.574,21.814l11.925,3.463l15.166-15.203L603.438,876.367
	L603.438,876.367z"/>
<path id="argentina" fill="#3D3F51" d="M612.901,850.942l3.592,3.37l-13.648,20.277l-4.796,5.315l1.667,23.166l10.537,12.796
	l-8.852,15.444l-6.703,2.889h-7.666l2.148,12.055l-11.981,4.111l2.87,10.129l-7.185,22.925l8.87,7.24l-4.796,11.814l-8.148,12.796
	l4.315,8.926l-10.537,1.685l-8.629-10.611l-1.444-33.054l-13.407-56.146l4.055-19.629l-8.629-25.092l5.741-32.573l5.278-6.278
	l-1.296-4.759l6.778-6.185l15.111,1.037l8.444,9.018l9.759,0.167l10,6.111l-2.944,6.889l0.704,6.963l14.166-0.667L612.901,850.942
	L612.901,850.942z"/>
<path id="tierra_del_fuego_chile" fill="#3D3F51" d="M575.069,1028.527l-7.907,17.37l13.648,1.444l0.241-11.574L575.069,1028.527
	L575.069,1028.527z"/>
<path id="tierra_del_fuego_argentina" fill="#3D3F51" d="M582.254,1037.212l0.481,10.611l8.148-0.722l6.944-4.592l-11.74-2.407
	L582.254,1037.212L582.254,1037.212z"/>
<path id="chile" fill="#3D3F51" d="M572.384,1025.805l-5.944,6.574l-0.722,7.722l-11.5-6.518l-12.222-17.61l-3.592-6.278
	l5.037-6.518l-0.481-8.203l-5.741-2.407l-4.555-3.37l0.963-4.592l5.981-1.685l1.204-26.536l-9.333-5.315l-6.092-138.124l1.574-2.741
	l11.925,27.499l3.815,0.074l1.241,4.389l-5.074,6.148l-5.833,33.091l8.296,25.481l-3.833,19.296l13.518,56.739l1.426,33.184
	l9.685,11.203L572.384,1025.805L572.384,1025.805z"/>
<path id="chiloe" fill="#3D3F51" d="M532.922,956.382l-2.389,3.611l1.204,6.278l2.389,0.241l1.204-7.963L532.922,956.382
	L532.922,956.382z"/>
<path id="brazil" fill="#3D3F51" d="M629.141,889.181l11.574-22.258l0.426-18.703l21.592-13.925h12.092l9.5-16.092l1.722-30.888
	l-3.889-8.259l22.888-20.888l0.87-23.055l-31.091-15.222l-37.554-11.74l-17.703-1.741l4.759-10l-1.296-15.222l-3.87-1.278
	l-5.722,11.37l-3,3.759l-7.703-3.407l-25.906,9.129l-8.629-10.87l1.389-11.351l-8.148,8.296l-9-4.852l-0.907,1.278l0.019,3.944
	l7.759,4.167l-11.648,12.277l-7.352-0.074l-7.444-7.574l-8.426,0.259l-1.037,9l4.833,5.87l-5.703,18.277l-6.666,0.518l-10.611,6.703
	l-2.592,13.166l9.203,9.851l1.685-1.907l6.463-1.741l5.518,9.296l15.796-6.778l6.129,0.352l4.222,14.944l22.536,7.148l3.889,11.925
	l9.592,1.148l4.574,11.388l-3.093,10.129l4.037,5.296l-0.593,7.889l10.814-1.018l9.907,12.518l-0.778,8.796l5.87,4.963
	l-14.074,21.314L629.141,889.181L629.141,889.181z"/>
<path id="belize" fill="#3D3F51" d="M426.038,599.47l-0.093,6.759h1.556l5.296-9.888h-3.592L426.038,599.47L426.038,599.47z"/>
<path id="russia" fill="#3D3F51" d="M1561.939,211.577l3.259,11.259l6.518,1.87l6.518-10.314l-3.722-7.037l1.389-6.092h9.777
	l-2.333,4.685l0.926,16.888l-13.962,34.702l1.389,7.5l-0.463,12.666l26.055,37.98l5.111,1.407l0.463-30.943l5.111-4.685
	l-5.592-12.185l4.648-5.166l-10.24-13.592l-5.592,0.463l-1.852-22.499l14.425-3.759l0.926-6.574l7.444-1.87l4.185,3.759
	l5.111-20.629l8.833-14.999l6.981-3.759l6.055,0.463v-7.037l-9.777-1.87l-13.5-11.259l6.518-7.5l-5.592-12.666l4.648-4.685
	l5.592,7.5l13.962,5.166l15.351,1.407l1.87-6.555l-7.907-7.963l8.833-12.185l-20.018-7.037l-5.111,10.314l-6.518-8.444
	l-36.758-12.666l-34.906,6.092l-5.111,2.815v2.815l7.444,3.759l-0.926,8.907l-13.499-5.629l-29.777,11.722l-5.111-10.777h-20.481
	l-9.315,9.851l-33.036-7.5l-30.24,6.092l-3.722,9.37l4.648,1.407l-0.463,7.037l-29.314,3.278l1.87,9.37l-26.999-4.685l6.518-12.185
	l-27.462-1.407l2.333,12.666l-8.833,4.222l-7.444-7.037l-30.24,5.166l-11.629,10.777l-0.463,6.555l-7.444,0.463l-0.926-7.5
	l23.74-20.629V136.58l-15.351-4.222l-20.018,6.555l-8.37-8.444h-3.722l-4.648,9.37l3.722,4.222l-26.536,14.536l-22.796,17.351
	l-13.962,19.221v7.963l14.888,6.092l-7.444,5.629l-15.814-5.629l-6.518,5.629l-9.777-11.259l-1.87,4.222l10.703,33.758l2.796,0.944
	l7.444-3.759l3.722,2.815v6.092l-6.981-2.815l-4.185,3.278l2.796,6.092l-2.333,15.944l-14.425,1.407l-0.926-5.166l8.37-5.166
	l1.87-14.074l-9.314-12.185l-3.259-21.092l-14.888-2.352l-1.389,7.5l2.796,3.759l-6.055,5.166l2.333,14.074l8.833,3.759l1.87,10.314
	l-8.852-5.629l-22.795-4.222l-2.796,7.5l-18.147,6.555l-2.796-4.685l-23.74,13.129l-0.463,8.907l-9.314,1.407l2.796-6.555v-6.555
	l-9.314-3.278l-6.055,2.352l5.111,9.851l3.722,6.555v5.166l-6.981-1.407l-1.389-1.407l-6.981,7.5l3.722,6.555l-15.814-0.463
	l5.111,6.574l-1.389,2.815h-8.37l-6.055-4.222l-1.389-11.722l-9.777-3.759v-4.685l20.481,4.222l11.166,0.944l4.648-7.037l-4.185-7.5
	l-29.777-11.722l-10.277,2.555l-3.518,3.018l1.093,6.944l4.37,0.759L1006.7,285.5l13.481,31.665l-9.74,15.444l-0.667,3.481
	l4.944,3.481l-4.463,2.944l-2.963,0.056l0.555,13.611l4.092,5.796l0.056,5.629l5.241,0.481l8.018,3.055l8.481,11.666l0.093,3.074
	l-2.759,4.722l6.333-0.352l6.167,1.778l8.333,11.796l20.518,1.87l-0.889,14.036l-7.074,6.055l1.463,2.37l-6.981,7.5l-1.852,7.037
	l4.185,6.092l13.499,4.685l5.593-3.278l35.832,13.592l1.389-3.759l-7.444-7.037v-8.907l-4.648-1.407l0.926-7.5l7.444-8.907
	l-13.351-10l0.926-13.907l14.277-9.389l16.759,0.944l2.796,5.166l17.222,0.944l12.574-7.037l-6.518-7.037l1.389-13.129
	l32.573-15.944l25.055,11.296l8.37-7.5l24.666,23.444l18.61-1.87l6.518,6.555l17.685,1.87l11.629-15.944l14.888,6.574l7.907,1.407
	l7.907-7.037l-6.981-4.685l6.055-9.37l17.222,5.629l3.722,7.5l7.444,0.463l4.648-3.278l12.574-0.463l1.389,3.278l14.425,0.944
	l9.777-10.314l20.018,2.352l6.055-2.352l1.852-11.259l-6.055-13.592l6.055-5.166h19.073l18.147,21.573l23.258,13.129h6.981
	l0.926-5.629l8.37-5.166l0.926,30.48l-7.444,0.463v7.5l4.185,5.166l-0.778,6.703l3.092,1.278l1.87-4.685l2.796,0.944l1.852,1.87
	l8.37-1.87l8.37-24.388l0.926-30.48l-10.703-24.388l-13.5-16.407l-6.518,0.944v5.166l-15.814-6.092l6.055-13.129l5.111-34.702
	l21.407-6.555l10.24-6.555h11.166l-2.797,3.759l2.796,4.685l9.777-10.314l5.592,0.463l-0.926-6.092l-8.852-1.87l6.055-22.036
	L1561.939,211.577L1561.939,211.577z"/>
<path id="china" fill="#3D3F51" d="M1288.671,391.459l-6.407,16.11l-8.833-0.463l-9.314,20.388l7.907,10.074l-16.296,22.499
	l-8.37-1.407l-5.592,7.037l1.389,4.222l6.518,0.463l3.259,7.5l6.518,1.407l20.018,25.795v13.129l9.777,6.092l10.703-1.87l13.5,7.963
	l16.296,4.685l7.907-0.944l8.852-0.944l18.61-12.185l6.055,0.944l2.315,5.5l5.13,1.537l6.981,10.314l-4.648,10.314l2.796,7.037
	l7.907,2.815l1.389,8.444l9.314,0.944l1.389-4.222l13.499-7.037l8.37,0.463l9.777,10.777l6.518-2.815l4.185,0.463l1.87,5.167
	l3.259,0.463l4.648-6.555l18.61-7.037l16.759-20.166l5.592-19.221l-0.463-12.666l-6.981-1.407l4.185-4.685l-0.926-7.5
	l-17.685-17.814v-8.907l5.111-6.555l5.111-2.352l0.463-5.166h-13.036l-2.333,7.037l-6.055-1.407l-7.444-7.963l4.648-12.185
	l6.518-7.037l6.055,0.463l-0.926,10.777l3.259,2.815l7.907-7.963l2.796-0.463l-0.926-6.092l7.444-8.907l5.592,0.463l3.259-10.314
	l3.815-2.018l0.389-6.426l-3.703-3.889l-0.315-10.148l7.129-0.463l-0.463-26.166l-5,3l-1.87,6.703l-8.352-0.019l-24.203-13.611
	l-17.481-21.073l-17.74-0.185l-4.518,3.926l5.74,13.148l-2,12.333l-7.148,2.963l-4.018-0.315l-0.296,12.203l4.185,0.944l7.444-3.278
	l9.777,4.685v4.685l-6.981,0.463l-5.592,12.185l-5.111,0.463l-18.147,23.906l-19.073,8.444l-13.036,0.944l-8.833-6.092
	l-12.573,6.574l-13.499-4.222l-3.259-8.907l-22.796-1.407l-12.092-19.684h-5.111l-4.111-9.129L1288.671,391.459z"/>
<path id="mongolia" fill="#3D3F51" d="M1294.967,391.644l10.777-14.296l12.944,5.981l8.796,2.352l10.777-9.888l-7.314-5.389
	l4.815-6.796l14.37,5.074l4.981,8.166l9,0.241l4.703-3.5l9.685-0.389l2.111,3.592l16.092,0.815l10.185-10.388l14.092,1.481
	l-0.815,14.148l6.167,1.407l7.574-3.444l8.018,3.963l-0.185,2l-5.815,0.167l-6.055,12.703l-4.703,0.463l-18.296,23.906l-18.685,8.24
	l-11.685,0.907l-9.703-6.259l-12.407,6.629l-12.222-3.796l-3.463-8.87l-23.147-1.63l-11.851-20.092l-5.759-0.37L1294.967,391.644
	L1294.967,391.644z"/>
<path id="north_korea" fill="#3D3F51" d="M1488.442,436.272l3.407,1.426l1.037,11.925l6.759,0.389l6.37-7.463l-2.204-1.963l0.259-8
	l5.852-7.074l-2.981-5.37l1.944-2.222l1.074-5.555l-3.389-1.537l-2.889,1.463l-3.574,10.851l-5.777-0.5l-6.685,7.889
	L1488.442,436.272L1488.442,436.272z"/>
<path id="south_korea" fill="#3D3F51" d="M1507.07,443.55l11.444,9.333l1.944,9.037l-0.389,4.852l-5.592,6.296l-4.815,0.259
	l-5.463-11.796l-2.074-5.629l2.204-1.704l-0.519-2.352l-2.722-1.222L1507.07,443.55L1507.07,443.55z"/>
<path id="kazakhstan" fill="#3D3F51" d="M1115.141,425.81l7.592-3.241l8.481-0.296l0.593,12.962h-4.963l-3.796,6.185l4.963,8.24
	l7.315,4.129l0.667,4.722l2.685-0.889l2.481-2.944l4.093,0.889l2.055,4.129h5.259v-5.296l-3.222-9.426l-1.463-7.648l9.352-4.129
	l12.573,2.055l7.889,7.944l17.833-1.759l9.944,14.129l11.685,0.593l3.222-5.296l4.093-0.889l0.593-5.889l6.129-0.296l3.222,3.833
	l3.222-7.648l27.758,3.833l4.667-6.185l-7.889-9.722l10.518-22.962l8.481,0.593l5.852-14.129l-11.685-1.185l-6.722-6.481
	l-18.518,2.148l-23.851-23.055l-8.407,7.463l-25.499-11.574l-31.277,15.314l-0.87,10.888l7.315,8.537l-14.259,8.055l-18.499-0.407
	l-3.87-5.685l-14.5-0.796l-13.74,8.833l-0.296,12.074L1115.141,425.81L1115.141,425.81z"/>
<path id="turkmenistan" fill="#3D3F51" d="M1146.917,460.938l-1.148,4.87h-7.685v6.592l8.259,5.444l-2.555,7.463v3.444l3.426,0.574
	l4.555-6.018l10.259-2.296l21.925,8.315l0.278,6.018l12.24,1.148l13.666-14.351l-1.704-4.592l-9.111-2l-25.629-16.648l-1.148-6.018
	h-9.685l-4.278,8.037h-4.278L1146.917,460.938L1146.917,460.938z"/>
<path id="uzbekistan" fill="#3D3F51" d="M1211.859,482.178l5.704,0.296v-9.759l-5.407-3.148l9.111-11.481h3.704l3.703,4.315
	l9.685-3.722l-13.388-4.592l-0.519-2.778l-3.185,0.778l-3.13,5.444l-13.499-0.444l-9.907-14.018l-17.407,1.722l-8.296-8.222
	l-11.481-1.944l-8.333,3.389l4.833,16.073l0.056,5.407l3.518,0.074l4.315-8.222l11.481,0.148l1.704,6.315l24.61,16.333l9.518,2.185
	L1211.859,482.178L1211.859,482.178z"/>
<path id="tajikistan" fill="#3D3F51" d="M1214.211,468.808l7.611-9.444h2.87l1,2.111l-3.518,2.555v2.111l2.315,1.667l11.129,0.667
	l3.63-1.556l1.648,0.333l1.111,3.555l6.611,0.667l3.315,7l-1,2.111l-1.315,0.111l-1.315-2.667l-2.87-0.222l-4.963,0.667
	l-0.333,4.667l-4.963-0.333l0.222-5.889l-3.63-3.555l-5.518,4.555l0.111,3l-4.852,1.667h-2.87l0.222-10.333L1214.211,468.808
	L1214.211,468.808z"/>
<path id="kirgizstan" fill="#3D3F51" d="M1226.47,445.42l-0.574,4.685l0.463,2.889l16.111,5.407l-14.148,5.703l-1.611-1.333
	l-3.055,1.963l0.148,1.074l1.63,0.741l9.926,0.259l5.037-1.518l6.463-8.148l8.092,1.407l9.759-13.518l-26.11-3.555l-3.611,8.759
	l-4.555-4.889L1226.47,445.42L1226.47,445.42z"/>
<path id="afghanistan" fill="#3D3F51" d="M1184.453,496.974l2.944,23.073l7.333,1.611l0.685,4.148l-5.259,4.389l9.796,7.907
	l19.036-6.852l1.518-8.111l11.981-7.481l4.592-17.333l3.426-3.685l-3.555-6.185l11.592-7.166l-1.481-2.074l-5.352,0.333
	l-0.481,4.926l-7.185-0.074l-0.13-6.574l-2.315-2.759l-3.889,3.537l0.111,3.241l-5.87,2.222l-10.833-0.685l-14.073,14.74
	L1184.453,496.974L1184.453,496.974z"/>
<path id="pakistan" fill="#3D3F51" d="M1201.138,539.176l4.815,7.148l-0.463,3.685l-6.407,2.537l-0.463,6h7.333l2.518-2.074h13.962
	l12.592,11.074l1.611-5.315h9.389l0.222-6.685l-9.611-9.222l2.056-5.074l9.851-0.685l13.277-27.684l-7.333-5.759l-2.741-9.685
	l17.851-1.611l-10.537-14.999l-5.611-1.518l-2.296,2.778l-1.722,0.13l-10.537,6.685l3.444,5.778l-3.889,4.148l-4.815,17.759
	l-11.907,7.611l-1.611,8.315L1201.138,539.176L1201.138,539.176z"/>
<path id="india" fill="#3D3F51" d="M1289.745,656.153l8.481-4.148l5.037-18.222l-0.222-22.369l28.851-31.147v-7.389l5.944-2.315
	l-0.222-8.537l-6.407-12.462l3.667-6.685l8.018,7.389l10.296,0.463v4.148l-3.203,3.463l0.685,1.852l5.5,0.222l1.148,6.222h1.611
	l4.129-7.389l2.056-19.37l6.87-4.852l0.222-6.685l-2.741-5.315l-4.352-0.222l-17.036,11.259l1.074,7.24l-11.963-0.037l-4.222-5.166
	l-2.296,0.296l0.778,7.185l-25.869-1.852l-16.036-7.148l-0.852-8.796l-10.685-6.629l-0.13-13.648l-7.333-8.389l-16.851,1.611
	l1.833,7.333l8.259,6.685l-14.277,29.221l-9.555,0.722l-1.574,3.518l9.407,8.703l-0.463,8.796l-9.611-0.148l-1.037,4.37l7.981-0.352
	l0.222,3.463l-5.722,3l3.667,6.926l7.092,2.315l4.352-3.222l2.055-5.759l2.518-1.148l2.981,3l-0.907,7.389l-2.055,3.463l0.463,6
	L1289.745,656.153L1289.745,656.153z"/>
<path id="nepal" fill="#3D3F51" d="M1290.134,525.695l0.852,7.907l14.962,6.778l23.981,1.778l-0.907-5.796l-16.018-4.407
	l-13.592-8.092L1290.134,525.695L1290.134,525.695z"/>
<path id="bhutan" fill="#3D3F51" d="M1334.966,535.917l2.87,3.926l9.703,0.074l-0.981-5.37L1334.966,535.917L1334.966,535.917z"/>
<path id="bangladesh" fill="#3D3F51" d="M1335.281,545.231l-2.426,4.389l6.296,11.963l0.185,9.333l1.148,2.5l7.389,0.13l4.185-4.018
	l3.037,1.833l0.611,5.685l2.426-1.518l0.148-7.259l-2.037-0.241l-1.278-6.166l-5.148-0.185l-1.278-3.426l3.148-4.204l0.056-2.074
	h-9.148L1335.281,545.231L1335.281,545.231z"/>
<path id="burma" fill="#3D3F51" d="M1398,638.82l-5.13-8.222l3.722-5.222l-3.518-6.463l-3.315-0.63l-0.63-10.851l-4.963-9.611
	l-1.444,2.296l-3.315,5.629l-4.148,0.63l-2.074-2.722l-1.037-7.315l-3.111-5.852l-12.666-11.944l3.111-2.055l0.574-8.648l4.63-7.777
	l2-19.351l6.703-4.574l0.222-7.055l4.018,1.333l6.333,9.166l-4.703,10.074l3.167,7.907l7.833,3.074l1.426,8.611l10.518,1.63
	l-2.907,5.018l-13.259,5.222l-1.444,8.555l9.74,12.518l0.407,6.685l-2.278,2.296l0.204,2.093l7.259,10.648l0.204,11.055L1398,638.82
	L1398,638.82z"/>
<path id="thailand" fill="#3D3F51" d="M1399.093,577.378l6,7.722v9.389l2.074,1.037l9.537-4.592l1.87,0.63l11.389,13.148
	l-0.407,8.981l-3.722-0.63l-3.315-2.093l-2.481,0.204l-4.352,7.296l0.833,3.963l3.518,1.87l-0.204,4.389l-2.481,1.259l-8.5-5.852
	v-5.222l-3.518-0.204l-1.444,2.296l-0.741,23.369l5.5,10.037l9.74,9.389l-0.407,2.722l-5.185-0.204l-4.759-7.092h-4.981
	l-6.222-5.018l-1.87-5.222l2.685-4.389l0.926-3.963l2.926-5.185l-0.13-11.925l-7.148-10.333l-0.296-1.259l2.315-2.333l-0.537-8.203
	l-9.518-12.055l1.111-6.944L1399.093,577.378L1399.093,577.378z"/>
<path id="malaysia" fill="#3D3F51" d="M1404.056,660.671l3.722,8.352l0.833,10.851l4.981,7.722l12.018,7.296l4.555,0.426
	l-0.833-7.518l-3.944-9.592l-5.778-12.277l-0.481,2.148l-6.963-0.315l-5-7.185L1404.056,660.671L1404.056,660.671z"/>
<path id="cambodia" fill="#3D3F51" d="M1418.444,631.08l7.574,8.092l14.092-10.444l1.241-16.481l-7.277,5.018l-3.778-2.111
	l-5.129-0.685l-2.87-2.018l-1.389,0.074l-3.759,6.166l0.611,2.852l3.815,2.13l-0.463,5.796L1418.444,631.08L1418.444,631.08z"/>
<path id="laos" fill="#3D3F51" d="M1409.167,563.416l-4.481,2.278l-3.722,10.851l6.222,7.926l-1.037,8.759l1.037,0.426l10.351-5.018
	l13.888,15.518l-0.333,9.777l3.018,1.63l7.463-6.055l-0.611-4.796l-21.536-20.462l0.204-3.13l2.685-1.87l-1.87-5.222l-8.907-1.463
	L1409.167,563.416L1409.167,563.416z"/>
<path id="vietnam" fill="#3D3F51" d="M1426.925,640.302l2.204,3.463l0.407,3.963l5.796,0.63l7.037-9.389l6.629-1.87l3.518-9.592
	l-1.648-15.444l-6.833-9.389l-7.203-5.759l-9.166-15.74l6.574-11l-9.407-10.796l-7.537-0.333l-6.777,3.648l2.019,8.722l9.037,1.593
	l2.426,6.722l-3.185,2.074l0.204,1.667l21.203,20.74l0.833,6.092l-1.278,19.258L1426.925,640.302L1426.925,640.302z"/>
<path id="georgia" fill="#3D3F51" d="M1075.828,454.587l6.055,7.907l7.555,3.481l4.648-0.018l7.981-2.167l2-3.13l-23.61-8.833
	L1075.828,454.587L1075.828,454.587z"/>
<path id="armenia" fill="#3D3F51" d="M1102.234,465.197l8.889,11.592l-2.611,3.055l-6.296-1.093l-7.814-7l0.426-4.592
	L1102.234,465.197L1102.234,465.197z"/>
<path id="azerbaijan" fill="#3D3F51" d="M1105.364,461.179l-1.87,3.185l8.722,11.444l3.037-0.981l5,5.241l2.167-9.185l5.426,0.87
	l-0.222-2.63l-8.926-7.815l-1.704,4.592L1105.364,461.179L1105.364,461.179z"/>
<path id="iran" fill="#3D3F51" d="M1102.104,480.123l-2.259,2.352l0.222,3.722l2.815,3.944l9.981,10.925l-1.518,4.37h-1.741
	l-0.87,4.37l5.648,7.222l5.203,0.444l10.426,14.425l5.852,0.444l4.555,3.278l0.222,6.555l18.018,10.5h6.722l4.129-3.5l5.203-0.222
	l3.037,7l19.462,2.704l0.574-7.148l6.444-2.333l0.296-2.555l-5.13-7l-11.425-9.185l6-5.463l-0.426-2.407l-7.518-1.167l-3.185-25.369
	l-0.37-5.833l-20.388-7.796l-9.037,2.037l-5.055,6.203l-4.481-0.296l-1.296,1.093l-9.981-0.648l-12.592-9.185l-4.685-5.129
	l-2.148,0.518l-3.87,4.426L1102.104,480.123L1102.104,480.123z"/>
<path id="turkey" fill="#3D3F51" d="M1081.827,463.901l-4.129,4.37l-15.185-0.444l-9.111-5.463l-8.888-0.222l-10.203,7.222
	l-9.555,0.444l-0.87,5.463h-10.851l-4.333,3.944v2.185l2.611,2.185v2.407l-1.093,2.852l1.093,2.407l3.481-1.741l3.481,3.722
	l-0.87,2.63l-1.296,1.759l1.944,2.185l9.555,1.963l6.722-2.852v-4.148l3.259,0.648l7.814,4.592l8.463-1.315l3.685-3.5l2.389,0.87
	v3.944h3.259l2.815-5.463l24.74-2.63l10.796-1.315l-2.852-3.741l-0.056-5.055l2.167-2.592l-7.889-6.333l0.426-5.463h-4.333
	L1081.827,463.901L1081.827,463.901z"/>
<path id="yemen" fill="#3D3F51" d="M1106.438,612.118l2.667,7.926v7.74l6.407,5.815l45.146-18.388l0.426-5.055l-7.24-13
	l-18.166,5.796l-10.426,10.259l-12.092-7.148L1106.438,612.118L1106.438,612.118z"/>
<path id="oman" fill="#3D3F51" d="M1155.306,596.581l13.685-7.889l2.426-11.574l-3-1.722l1.241-12.407l2.611-1.518l2.796,4.389
	l16.647,8.703v4.833l-20.166,29.684l-9.277,0.315L1155.306,596.581L1155.306,596.581z"/>
<path id="emirates" fill="#3D3F51" d="M1147.214,567.138l1.611,6.444l18.259,1.611l1.278-13.222l3.518-1.926l0.963-4.833
	l-5.759,1.611l-6.407,9.685L1147.214,567.138L1147.214,567.138z"/>
<path id="qatar" fill="#3D3F51" d="M1144.658,556.175l-0.963,7.426l2.852,2.167l2.593-0.241l0.963-9.352l-2.241-1.611
	L1144.658,556.175L1144.658,556.175z"/>
<path id="kuwait" fill="#3D3F51" d="M1127.363,534.232l-4.167-2.259l-2.889,2.907l0.315,5.815l6.722,2.574L1127.363,534.232
	L1127.363,534.232z"/>
<path id="saudi" fill="#3D3F51" d="M1128.677,545.472l12.981,18.092l4.185,3.333l1.87,8.111l19.981,1.574l2.259,1.185l-2.241,10
	l-13.129,7.74l-19.203,5.815l-10.24,10l-12.166-7.092l-7.37,6.444l-10.259-16.759l-7.037-3.222l-2.556-3.87v-8.389l-25.61-30.962
	l-0.963-5.481h7.37l8.963-7.74l0.315-3.87l-2.555-2.574l5.13-4.185l10.888,0.648l18.573,15.481l10.963-0.5l0.704,2.704
	L1128.677,545.472L1128.677,545.472z"/>
<path id="syria" fill="#3D3F51" d="M1059.55,500.826l-0.648,4.703l5.222,2.185l-0.222,13.037l5.222-0.111l5.222-3.944l1.963-0.333
	l11.851-9.426l2.389-13.685l-23.684,2.407l-2.5,5.481L1059.55,500.826L1059.55,500.826z"/>
<path id="iraq" fill="#3D3F51" d="M1092.216,493.233l-2.889,14.277l-11.963,9.963l0.759,4.703l11.685,0.796l18.61,15.148
	l10.407-0.296l0.278-3.5l3.815-4.092l5.333,3.018l0.704-0.667l-10.314-13.722l-4.889-0.296l-6.5-8.352l1.296-6.148l1.981-0.259
	l0.685-2.722l-8.852-9.314L1092.216,493.233L1092.216,493.233z"/>
<path id="jordan" fill="#3D3F51" d="M1063.68,522.399l-4.555,15.888l-0.204,2.426h7.166l8.018-7.074l0.204-2.685l-3.278-3.352
	l5.87-4.87l-0.852-4.518l-1.611,0.37l-4.889,3.5L1063.68,522.399L1063.68,522.399z"/>
<path id="lebanon" fill="#3D3F51" d="M1058.68,506.955l0.111,3.611l-1.518,5.481l5.222,0.444l0.333-7.777L1058.68,506.955
	L1058.68,506.955z"/>
<path id="israel" fill="#3D3F51" d="M1057.051,517.362l-2.926,9.314l3.796,11.166l4.352-16.314v-3.5L1057.051,517.362
	L1057.051,517.362z"/>
<path id="cyprus" fill="#3D3F51" d="M1053.143,502.14l2.278,1.648l-7.055,6.685l-3.37-0.111l-2.5-1.759l0.333-3.278l5.111-0.333
	L1053.143,502.14L1053.143,502.14z"/>
<path id="norway" fill="#3D3F51" d="M1001.756,265.668l3.741-2.741l-0.333-3.074l-2.37-1.37l0.333-3.759h2.037v-2.055l-8.833-2.389
	l-13.24,1.37l-1.352,5.815l-3.055-1.018l-2.037-3.426l-6.463,0.333l-0.685,6.5l-3.055,1.37l-1.704-3.426l-13.592,10.944l2.722,3.074
	l-5.092,2.389l-11.555,22.925l-4.074,2.741l0.333,2.055l4.074,2.055l-1.018,4.444l-6.796-0.352l-2.037-2.389l-4.407,5.129
	l-2.722,2.055l-0.685,4.796l-2.37,1.37l-6.111,1.37l-3.055,9.592l2.037,15.74l2.37,7.185l2.722,2.741l6.111-0.333l8.833-8.555
	l3.389-5.815l1.018,8.555l5.778-10.259l0.333-28.758l4.704-2.963l1.407-15.87l14.259-20.536l6.796-2.389l3.055-3.759l10.185,2.389
	l5.092,3.074l1.704-8.555l8.5-5.129L1001.756,265.668L1001.756,265.668z"/>
<path id="britain" fill="#3D3F51" d="M873.354,352.59l-3.389,5.129l1.352,2.055h7.815v3.426l-2.037,2.741l1.352,7.185l4.407,8.555
	l3.389,7.87l5.426,2.055l2.37,4.111l-0.333,3.759l-3.389,2.055l-0.333,1.704l2.37,1.37l-2.037,2.741l-4.759,2.055l-9.166-1.018
	l-14.277,6.5l-4.759-2.389l13.592-7.87l-1.704-1.018l-7.129-0.685l4.407-6.5l0.685-5.481l5.778-0.685l-1.018-10.611l-6.796-0.333
	l-2.037-2.389l0.333-7.87l-4.074,0.333l4.074-13.685l7.481-5.481L873.354,352.59L873.354,352.59z"/>
<path id="ulster" fill="#3D3F51" d="M859.095,375.534l-6.111,0.685l-0.333,5.481l4.074,2.741l4.407-1.018l1.704-3.074
	L859.095,375.534L859.095,375.534z"/>
<path id="ireland" fill="#3D3F51" d="M861.114,384.941l-1.685,11.111l-14.944,5.481h-4.759l-3.389-2.389v-2.055l7.481-4.796
	l-2.037-4.111l0.333-5.815l6.463,0.333l2.963-6.963l-0.389,6.185l5.018,3.981L861.114,384.941L861.114,384.941z"/>
<path id="sweden" fill="#3D3F51" d="M968.906,270.186l3.629,3.352h6.796l3.741,7.185l1.018,12.314l-9.166,6.5v6.5l-6.463,8.907
	l-3.741,0.333l-5.092,8.555l0.333,8.222l8.833,6.5l-0.685,3.759l-3.389,5.129l-5.092,4.444l0.333,14.722l-7.815,2.741l-2.722,5.815
	h-3.741l-2.037-10.259l-8.5-13.037l6.981-11.685l0.481-28.869l4.815-2.648l1.167-16.518l13.722-19.647L968.906,270.186
	L968.906,270.186z"/>
<path id="finland" fill="#3D3F51" d="M985.701,293.074l3.833,1.685l2.37,4.444l-2.37,3.074l-11.888,12.999l-2.037,6.852l2.722,9.926
	l9.166,6.852l12.222-5.815l9.852-1.37l9.166-14.722l-6.796-16.092l-6.463-15.407l1.018-9.926l-4.074-0.685l-1.056-7.24l-5.481-8.944
	l-6.074,4.204l-2.389,9.759l-6.444-3.87l-8.963-2.185l-2,2.333l3.444,3.111l6.278-0.111l5.055,8.166L985.701,293.074
	L985.701,293.074z"/>
<path id="path302" fill="#3D3F51" d="M1006.59,356.831l-12.685-2.055l0.278,7.092l11.759,7.185l4.815-1.407l-0.278-5.407
	L1006.59,356.831L1006.59,356.831z"/>
<path id="hiumaa" fill="#3D3F51" d="M985.646,349.924l-2.87-0.093l-1.667,1.685l1.204,1.778l2.87,0.185l1.481-2.148L985.646,349.924
	L985.646,349.924z"/>
<path id="saaremaa" fill="#3D3F51" d="M985.368,357.479l-2.778-0.278l-5,5.981v2.796l1.667,0.648l3.241,0.093l5.37-4.389l0.741-1.5
	L985.368,357.479L985.368,357.479z"/>
<path id="lithuania" fill="#3D3F51" d="M993.146,362.997l-3.981-0.093l-5.463,5.222h-4.629l0.278,6.537l-2.778,5.129l10,0.093
	l2.87-0.37l2.87,3.463l6.574-0.278l6.296-8.018l-0.37-4.759L993.146,362.997L993.146,362.997z"/>
<path id="belarus" fill="#3D3F51" d="M992.868,384.46l2.778,4.574l-1.111,3.648l0.185,2.889l1.018,3.463l5.74-3.259l7.129,0.185
	l5,2.055h12.685l3.704-8.87l2.222-3.352v-2.241l-7.963-11.203l-7.037-2.796l-5.74-0.648l-5,1.593l0.185,5.037l-6.944,8.777
	L992.868,384.46L992.868,384.46z"/>
<path id="poland" fill="#3D3F51" d="M994.349,400.144l1.574,2.889l0.37,3.074l-1.296,2.981l-2.963,5.703l-2.5,1.13l-3.241-1.407
	l-1.944,0.093l-4.722,1.778l-5.37-1.593l-8.703-6.166l-8.518-4.574l-3.426-5.222l-0.648-12.314l6.666-5.796l8.703-2.889l3.241-0.37
	l-1.296,2.611l0.833,1.018l14.648,0.278l3.148-0.093l5.185,7.944l-1.296,3.259l0.556,3.833L994.349,400.144L994.349,400.144z"/>
<path id="spain" fill="#3D3F51" d="M877.502,456.142H853.91l-4.759-2.148l-2.296,0.167l-2.778,5.778l0.981,5.944l9.018,0.833
	l1.148,3.796l-3.926,22.129l0.167,3.963l6.389,3.463l7.37,0.5l14.74-3.63l7.203-9.074l0.167-9.24l12.777-11.555l0.648-5.111
	l-11.629-0.167L877.502,456.142L877.502,456.142z"/>
<path id="portugal" fill="#3D3F51" d="M845.225,467.697l-1.148,16.018l-3.278,2.963l0.333,1.815l2.296,3.796l-1.481,4.629
	l2.463,0.833l5.741-0.667l-0.333-4.629l3.759-21.462l-0.815-2.963L845.225,467.697L845.225,467.697z"/>
<path id="majorca" fill="#3D3F51" d="M901.094,478.752l-2.944,1l0.648,2.648h4.259l1.796-1.981L901.094,478.752L901.094,478.752z"/>
<path id="sardinia" fill="#3D3F51" d="M931.574,471.66l-4.907,2.481l0.648,9.574l3.926,0.667l2.944-2.815v-9.074L931.574,471.66
	L931.574,471.66z"/>
<path id="corsica" fill="#3D3F51" d="M932.074,459.772l-3.611,3.629l-0.333,3.296l2.944,1.815l1.148-0.167l0.648-4.796
	L932.074,459.772L932.074,459.772z"/>
<path id="france" fill="#3D3F51" d="M899.797,407.44l-4.092,1l-8.185,8.907l-2.463,0.167l-3.278-2.315l-2.13,0.5l-1.63,5.111
	l-11.962,0.333l0.333,2.648l8.185,5.444l9.5,7.592l-0.167,9.074l-5.074,8.907l10.981,5.278l11.148,0.333l3.444-3.963l7.037,0.167
	l1.963,1.815l7.037-0.5l3.611-4.629l-4.592-5.444l-0.333-3.463l0.981-3.796l-2.296-3.296l-3.926,1.148l-0.5-2.963l8.685-9.574
	v-5.778l-5.741-3.296l-2.944-0.5L899.797,407.44L899.797,407.44z"/>
<path id="netherlands" fill="#3D3F51" d="M917.741,388.126l-8.389,4.129l1.778,1.611l0.185,4.129l-1.778-0.352l-1.963-3.055
	l-4.685,7.426l7.203,1.5l2.685,2.833l1.426,0.037l0.944-6.407l4.537-1.907L917.741,388.126L917.741,388.126z"/>
<path id="belgium" fill="#3D3F51" d="M902.038,403.403l-1.185,2.963l12.74,8.407l3.667,0.87l0.13-3.981l-3.204-3.592h-1.963
	l-2.685-3.055L902.038,403.403L902.038,403.403z"/>
<path id="germany" fill="#3D3F51" d="M919.685,387.404l6.611-1.074v-4.667l5.537-0.907l3.037,3.055l3.204,0.352l5-2.167l4.463,1.259
	l3.926,3.407l0.537,12.759l3.926,5.222l-5.167,0.722l-8.574,5.389l0.722,1.796l7.666,7.185l-0.537,3.592l-7.129,3.592l-6.611,0.185
	l-1.611,3.407h-3.389l-1.611-3.592l-5.889-1.444l-0.185-5.926l-5-3.407l0.537-4.315l-3.389-4.666l0.889-6.111l4.629-2.167
	L919.685,387.404L919.685,387.404z"/>
<path id="denmark" fill="#3D3F51" d="M930.111,357.072l-7.685,8.5l-0.278,5.537l3.5,9.129l5.481-1.037l-0.685-7.463l3.778-4.222
	l-0.074-3.315l-2.667-6.907L930.111,357.072L930.111,357.072z"/>
<path id="sjlland" fill="#3D3F51" d="M938.759,372.145l-1.722-0.074l-2.259,2.074l0.278,3.241l5.352,0.148l0.278-3.667
	L938.759,372.145L938.759,372.145z"/>
<path id="gotland" fill="#3D3F51" d="M970.332,354.609l-3.907,3.092l1.963,4.537l3.463-3.37L970.332,354.609L970.332,354.609z"/>
<path id="switzerland" fill="#3D3F51" d="M922.963,427.217l-8.074,8.592l0.167,0.87l3.315-1.037l2.981,4.148l5.037-1.778
	l3.481,2.704l1.426-0.815l4.296-6.74l-1.093-1.037l-4.241-0.111l-2.055-4.204L922.963,427.217L922.963,427.217z"/>
<path id="czech" fill="#3D3F51" d="M951.703,418.866h5.5h2.704l4.389,3.13l8.129-6.759l-7.889-5.629l-7.815-3.778l-5.352,0.963
	l-7.259,4.667L951.703,418.866L951.703,418.866z"/>
<path id="slovakia" fill="#3D3F51" d="M965.424,423.051l1.278,1.13l0.167,1.926l14.129-0.315l10.444-4.5l-0.167-4.574l-2,0.889
	l-2.87-1.537l-1.759-0.074l-4.629,1.852l-6.296-1.518L965.424,423.051L965.424,423.051z"/>
<path id="austria" fill="#3D3F51" d="M937.259,428.587l-1.204,2.5l1.037,1.778l4.315-0.889h3.667l3.981,3.37l8.463-1.537
	l6.222-3.704l1.593-2.5l-0.241-3.222l-5.592-4.185l-7.5,0.074l-0.63,4.259l-7.889,3.852L937.259,428.587L937.259,428.587z"/>
<path id="hungary" fill="#3D3F51" d="M967.091,427.625l-2.148,3.37l0.167,5.148l3.426,1.759l10.537,0.315l14.685-12.37l0.074-2.741
	l-1.592-0.796l-10.611,4.815L967.091,427.625L967.091,427.625z"/>
<path id="slovenia" fill="#3D3F51" d="M963.499,432.05l-4.704,2.815l-8.777,1.926l1.759,5.074l6.148,0.074l5.666-4.741
	L963.499,432.05L963.499,432.05z"/>
<path id="croatia" fill="#3D3F51" d="M965.017,437.921l-6.537,5.389h-6.629l-0.796,4.667l3.037,0.796l1.518-2.259l2.389,2.093
	l1.907,6.666l13.092,6.111l1.296-1.481l-13.277-13.703l1.352-2.5l12.611-0.481l1.278-4.018l-8.222,0.241L965.017,437.921
	L965.017,437.921z"/>
<path id="bosnia" fill="#3D3F51" d="M963.499,444.92l-0.685,1.13l12.425,12.814l4.555-6.703l-0.167-2.648l-3.981-4.833
	L963.499,444.92L963.499,444.92z"/>
<path id="italy" fill="#3D3F51" d="M921.778,441.291l-1.148,2.907l0.315,3.167l4.426,5.166l6.963-0.241l15.37,17.851l9.592,2.778
	l5.666,5.352l1.352,12.203l3.037-1.778l2.63-6.648l-0.648-4.778l4.5-0.407l0.648-2.704l-12.685-6.074l-12.037-11.833l-4.796-7.074
	l-1.167-6.722l6.129-1.463l-1.574-4.426l-3.759-3.167l-3.241-0.148l-4.518,1.241l-4.259,5.963L930,442.161l-3.981-2.444
	L921.778,441.291L921.778,441.291z"/>
<path id="sicily" fill="#3D3F51" d="M959.128,489.511l-2.685-1.444l-9.166,1.444l0.315,2.481l8.24,4.148l1.241,1.352l2.167,0.315
	L959.128,489.511L959.128,489.511z"/>
<path id="malta" fill="#3D3F51" d="M959.443,503.307l-3.093,0.63l0.111,3.426l2.778,0.926l1.241-1.037L959.443,503.307
	L959.443,503.307z"/>
<path id="ukraine" fill="#3D3F51" d="M1001.96,397.163l-5.37,3.018l1.333,5.703l-4.963,10.463l0.037,4.611l2.333,1.481l14.962,0.741
	l4.185-3.463l4.481,1.5l6.426,8.574l-4.704,8.444l5.592,1.63l7.315-8.426l4.185,0.759l3.889,2.704l-3.426,4.518l4.629,7.222h4.926
	l2.537-4.815l5.222-1.056l0.148-3.907l-9.703-1.5l0.296-4.204h9.407l10.148-8.129l4.481-3.907l0.741-12.333l-19.999-1.796
	l-8.203-11.574l-5.666-1.944l-6.87,0.296l-3.093,7.648l-14.073,0.185l-4.574-2.111L1001.96,397.163L1001.96,397.163z"/>
<path id="moldova" fill="#3D3F51" d="M1011.552,424.125l5.74,8.833l-0.482,5l2.055,0.093l4.87-8.24l-5.852-7.259l-3.315-1.37
	L1011.552,424.125L1011.552,424.125z"/>
<path id="romania" fill="#3D3F51" d="M995.683,423.921l-0.482,2.741l-10.722,8.926l8.963,13.148l5.74,4.018h10.333l3.407-2.852
	l4.574-0.593l3.407,2.055l6.037-6.87l-1.167-3.444l-6.129-1.574l-4.185-0.204l0.204-5.889l-5.555-8.74L995.683,423.921
	L995.683,423.921z"/>
<path id="montenegro" fill="#3D3F51" d="M982.206,460.305l-0.083-1.732l-2.445-3.432l-3.957,5.595l0.778,2.351l3.223,0.593
	L982.206,460.305z"/>
<path id="serbia" fill="#3D3F51" d="M983.407,436.771l-3.798,2.854h-1.852l-1.259,3.924l4.481,5.204l0.297,4.13l-0.633,0.893
	l3.031,4.257l0.105,2.257l2.181,2.112l7.111-2.166l-0.593-10.112L983.407,436.771z">
<desc  id="desc7821">includes kosovo</desc>
</path>
<path id="bulgaria" fill="#3D3F51" d="M994.312,451.309l0.296,9.222l3.111,6.481l11.685,0.204l5.259-3.722l5.166-2.055l-1.259-5.889
	l1.167-3.148l-2.629-1.37l-3.611,0.296l-2.833,2.852l-11.888,0.093L994.312,451.309L994.312,451.309z"/>
<path id="albania" fill="#3D3F51" d="M980.572,464.956v8.537l2.444,4.611l1.759-0.204l3.018-5.5l-1.759-2.463l-0.685-6.092
	l-2.333-2.167L980.572,464.956L980.572,464.956z"/>
<path id="macedonia" fill="#3D3F51" d="M993.349,461.716l-6.24,2.055l0.296,5.296l1.463,1.87l7.407-3.444L993.349,461.716
	L993.349,461.716z"/>
<path id="greece" fill="#3D3F51" d="M985.553,479.474l-0.204,2.463l8.574,4.315l4.092,1.574l-2.148,2.259l-4.778,0.481l-0.685,2.167
	l1.648,3.722l5.352,2.852l2.333,0.204l0.296-6.389l3.5-4.222l-9.555-11.296l1.259-3.833l2.241-0.093l3.407,2.741l2.148-1.074
	l0.685-3.833l10.037,0.093l0.389-5.889l-4.185,2.944l-12.277-0.296l-7.981,4.129L985.553,479.474L985.553,479.474z"/>
<path id="thrace" fill="#3D3F51" d="M1015.756,464.845l-0.296,6.574l5.74-1.759l2.63-1.759l-0.778-2.852l-2.722-2.167
	L1015.756,464.845L1015.756,464.845z"/>
<path id="crete" fill="#3D3F51" d="M1004.164,503.529l3.018,0.093l1.259,1.87h4.389l2.926-1.074l0.981,1.185l-1.944,2.555
	l-8.574,0.296l-1.556-2.055l-1.648-0.981L1004.164,503.529L1004.164,503.529z"/>
</svg>
